<svg width="131" height="42" fill="none" xmlns="http://www.w3.org/2000/svg"><path fill-rule="evenodd" clip-rule="evenodd" d="M71 15.598v4.91L72.936 25H80l-3.244-6.557c1.937-1.007 2.808-3.019 2.808-4.996C79.564 10.134 76.128 8 71.21 8H71v4.632c.837.138 1.309.554 1.309 1.526 0 1.041-.471 1.354-1.309 1.44ZM71 12.857V8.52h-7.46v15.92h6.191v-4.695c.435-.016.785-.016 1.168.211l.101.277v-4.598c-.183.016-.384.016-.6.016h-.634v-2.86h.5c.266 0 .516.018.733.066ZM53.645 19.86v5.133c5.156-.048 8.827-3.265 8.827-8.48 0-5.23-3.638-8.464-8.827-8.496v5.133c1.769.016 2.753 1.17 2.753 3.363s-.984 3.33-2.753 3.347Zm0-6.71V8.017c-.033 0-.067-.016-.1-.016-5.24 0-8.944 3.265-8.944 8.513 0 5.247 3.755 8.48 8.944 8.48.033 0 .067.016.1 0V19.86h-.05c-1.768 0-2.753-1.138-2.753-3.346 0-2.226.985-3.38 2.753-3.38.017 0 .033.017.05.017Zm-34.073 5.67v3.525h2.27l.45 2.096h5.756L22.56 8.52h-2.986v6.499l1.202 3.8h-1.202Zm0-3.801V8.519h-3.37l-5.39 15.921h5.924l.567-2.096h2.27v-3.525h-1.236l1.169-4.078.066.277Zm24.112 7.553v-7.39h-7.86v3.41h2.203v1.804c-3.303.34-4.956-.439-4.905-3.932.033-2.485 1.35-3.671 2.67-3.85.784-.097 1.701.325 2.385 1.186l5.106-2.144c-.95-1.933-3.888-3.558-6.407-3.59-6.742-.114-9.829 3.396-9.829 8.675 0 4.922 3.12 7.798 9.362 8.204 3.087.162 5.122-.666 7.275-2.373ZM0 24.441h5.99v-5.557h5.274V14.79H5.991v-2.324h5.857V8.519H0V24.44Z" fill="#000"/><path fill-rule="evenodd" clip-rule="evenodd" d="M109.94 0C121.56 0 131 9.451 131 21.025 131 32.549 121.56 42 109.94 42c-10.133 0-18.628-7.227-20.604-16.746h14.473l6.317-6.402H89c.151-1.398.405-2.729.81-4.01h24.319l6.316-6.418H93.103C96.953 3.319 103.066 0 109.94 0Z" fill="#FD466E"/></svg>