<svg width="105" height="57" fill="none" xmlns="http://www.w3.org/2000/svg"><g clip-path="url(#a)"><path d="M104.839 42.072c-.001.359-.142.703-.393.957a1.33 1.33 0 0 1-1.457.294 1.366 1.366 0 0 1-.724-.734 1.373 1.373 0 0 1 .291-1.475c.252-.257.587-.397.945-.397s.692.14.945.397a1.37 1.37 0 0 1 .393.958Zm-1.338-1.516c-.397 0-.777.16-1.057.444a1.528 1.528 0 0 0 0 2.142 1.474 1.474 0 0 0 1.058.444c.4 0 .775-.157 1.057-.444a1.49 1.49 0 0 0 .439-1.071 1.5 1.5 0 0 0-.439-1.072 1.476 1.476 0 0 0-1.058-.443Z" fill="#000"/><path d="M103.263 41.337v.549s.563.037.563-.271c0-.359-.563-.281-.563-.278Zm0 .895v.872h-.364v-2.076c.449 0 1.242-.119 1.242.577 0 .445-.326.56-.326.56l.438.94h-.362l-.419-.872h-.209Zm-24.146-7.451v-6.38s-.09-2.896-2.96-2.896c-1.797 0-2.959 1.61-2.959 2.897 0 2.049 1.854 2.895 2.96 2.895.662 0 1.106-.116 2.092-.818 0 2.517-.03 3.987 0 3.98-.658.175-.898.315-2.092.315-3.647 0-6.511-2.92-6.511-6.373 0-4.388 3.886-6.372 6.51-6.372 3.288 0 6.511 2.569 6.511 6.372 0 2.341.006 2.283.006 2.927v3.457l-3.557-.004Zm-26.18-5.868v-6.564l3.588-1.58v8.88c0 6.964-11.42 6.964-11.42.117v-3.94l3.587-1.606v4.727c0 3.278 4.245 3.244 4.245-.034Z" fill="#EB1B23"/><path d="M69.08 34.925s-1.814.114-2.988-.526c-2.153-1.17-1.915-4.592-1.915-4.592v-6.671h-2.33v-3.514h2.33v-2.165l3.588-1.637v3.92h2.332v3.454h-2.331v6.875s.06 1.636 1.315 1.636v3.22Zm-11.6-12.582h3.588v12.429H57.48v-12.43Zm0-.964 3.588-.024v-2.552l-3.587 1.58v.996Z" fill="#EB1B23"/><path d="M90.15 21.495v3.688c-2.63 0-2.513 1.58-2.513 3.043v6.555H84.05v-8.662c0-4.506 3.649-4.624 6.1-4.624ZM83.414 9.33c-.113-.247-.578-.281-1.093-.1l-.146-.321.152-.072-.127-4.465-3.267-3.001-.154.071-.146-.322c.472-.278.748-.658.637-.905-.131-.284-.721-.287-1.32-.008-.6.282-.98.738-.853 1.02.111.248.576.283 1.091.1l.149.323-2.732 1.273-.145-.323c.47-.277.75-.657.635-.904-.129-.284-.72-.288-1.32-.006-.6.279-.98.735-.853 1.02.113.247.578.28 1.093.097l.147.322-2.628 1.228-.146-.322c.472-.28.75-.66.635-.907-.129-.283-.72-.286-1.32-.007-.6.28-.98.737-.853 1.02.114.248.579.282 1.094.1l.147.322-.325.15-.993 2.82-36.727 16.954c-1.74-1.563-4.696-1.895-7.425-.62-3.45 1.608-5.225 5.159-3.965 7.929 1.26 2.771 5.077 3.713 8.527 2.103 2.485-1.16 4.094-3.329 4.331-5.486l1.819-.855c.126-.05 1.218-.443 2.463.82.726 1.648 1.374 3.427.96 4.543-.075.204-.305.82-1.521 1.368-.814.367-1.523.53-2.422.735-1.334.304-2.997.684-5.56 1.88-2.23 1.039-3.483 3.042-4.812 5.166-1.777 2.84-3.791 6.058-8.77 8.38-1.326.618-2.55.703-3.74.258-3.657-1.368-6.479-7.574-7.404-9.612-1.889-4.156-4.253-10.083-2.972-13.597.393-1.076 1.126-1.85 2.24-2.372 5.05-2.356 8.649-2.178 11.82-2.022 2.324.112 4.517.219 6.673-.785 2.564-1.195 3.66-2.1 4.541-2.826.584-.481 1.007-.828 1.792-1.195 1.05-.49 2.07-.545 3.028-.165 1.45.575 2.454 1.97 2.909 3.084l2.953-1.238c-.914-2.24-2.67-4.056-4.696-4.86-1.774-.704-3.686-.622-5.53.24-1.153.536-1.823 1.088-2.47 1.622-.783.644-1.668 1.373-3.864 2.397-1.445.674-3.092.592-5.179.49-3.366-.165-7.553-.369-13.313 2.318-1.897.886-3.21 2.295-3.9 4.191-1.675 4.59.758 11 3.065 16.073 1.846 4.061 4.808 9.653 9.2 11.293 1.997.748 4.078.629 6.186-.353 5.832-2.72 8.215-6.53 10.13-9.59 1.16-1.853 2.078-3.317 3.45-3.956 2.257-1.056 3.674-1.379 4.925-1.664.985-.226 1.917-.438 3.018-.934 1.62-.729 2.703-1.803 3.215-3.19.977-2.645-.369-5.57-1.556-8.149l-.239-.523L72.388 11.09l2.772 1.09.324-.151.147.322c-.472.278-.748.658-.635.905.129.284.72.286 1.318.008.6-.282.981-.738.853-1.02-.113-.248-.577-.282-1.092-.1l-.147-.322 2.627-1.225.147.322c-.47.277-.747.657-.635.904.13.284.72.287 1.318.007.6-.28.983-.736.853-1.02-.112-.248-.576-.28-1.093-.098L79 10.39l2.73-1.273.145.322c-.47.277-.749.657-.635.905.13.283.72.286 1.32.006.601-.279.984-.736.854-1.02Zm-2.689 44.466s-1.75.103-2.89-.526c-2.03-1.12-1.848-5.157-1.848-5.157v-7.082h-2.254v-3.543h2.254v-1.51h3.472l-.005 1.628h2.254v3.485h-2.254v7.85s.058 1.637 1.271 1.637v3.218Z" fill="#EB1B23"/><path d="M52.063 53.545C49.032 57.048 45.8 57 44.588 57c-6.16 0-9.925-5.297-9.925-10.053 0-4.294 2.838-8.959 8.374-9.886 3.483-.586 6.868.76 9.226 3.443-.758.564-2.473 1.892-2.473 1.892-1.87-1.738-3.182-2.32-5.202-2.32-1.616 0-6.783 1.348-6.783 6.871 0 3.631 2.844 6.896 6.783 6.87 2.954-.016 4.243-1.55 5.049-2.318l2.425 2.046Zm18.665-7.023v7.151h3.468v-8.202c0-6.966-11.04-6.966-11.04-.118v8.32h3.47v-7.267c0-3.16 4.102-3.219 4.102.116Zm30.394-6.075v3.688c-2.543 0-2.426 1.578-2.426 3.041v6.504h-3.468v-8.612c0-4.103 3.566-4.62 5.894-4.62Zm-15.336 4.19s-1.4 1.283-.733 3.005l3.697-3.746s-1.365-.71-2.964.742Zm1.005 5.895c-.025.017.818.163 1.06.163 1.836 0 2.743-1.317 2.743-1.317s3.016.008 3.447.001c0 0-.797 2.103-2.233 3.041-5.529 3.61-9.026-.863-9.713-2.034-1.034-1.77-1.596-6.873 2.323-9.078 5.897-3.313 9.184 2.447 9.184 2.447l-6.811 6.777Z" fill="#EB1B23"/><path d="M54.307 44.638s-1.402 1.28-.735 3.004l3.698-3.745s-1.365-.71-2.963.74Zm8.254 4.742s-.797 2.103-2.233 3.04c-5.529 3.613-9.026-.86-9.713-2.033-1.036-1.77-1.598-6.873 2.323-9.078 5.897-3.313 9.183 2.446 9.183 2.446l-6.81 6.777c-.023.017.818.163 1.06.163 1.837 0 2.742-1.317 2.742-1.317l3.448.002Z" fill="#EB1B23"/></g><defs><clipPath id="a"><path fill="#fff" d="M0 0h105v57H0z"/></clipPath></defs></svg>