<svg width="176" height="40" fill="none" xmlns="http://www.w3.org/2000/svg"><path d="M17.76 21.57c2.767-.13 6.37-1.438 6.37-4.771 0-3.66-3.217-5.229-6.306-5.229H5.404v1.438h2.64v18.04H5.468v1.437h10.296v-1.438H13.19v-8.823h1.158c1.544 0 2.703 1.242 3.089 3.137.772 2.68 1.609 5.752 1.609 5.817 0 0 .386 1.307 1.93 1.307h5.663v-1.438h-2.188l-1.223-5.032c-.708-2.876-2.123-4.38-5.47-4.38-.064-.065-.064-.13 0-.065Zm-3.153-.784H13.19v-7.713h1.737c2.896-.065 3.346.916 3.346 2.288v2.876c0 1.96-.836 2.549-3.667 2.549Z" fill="#DD3E31"/><path d="M19.69 0C8.816 0 0 8.955 0 20c0 10.98 8.816 19.935 19.69 20 10.875-.066 19.691-9.02 19.691-20 0-11.046-8.816-20-19.69-20Zm0 38.17C9.845 38.17 1.866 30 1.866 20c0-10 7.98-18.104 17.824-18.104C29.6 1.896 37.58 10 37.58 20S29.6 38.17 19.69 38.17Z" fill="#DD3E31"/><path d="M58.38 27.704c-.772-2.387-1.206-3.175-3.03-3.616-.037 0-.037-.03 0-.03 1.824-.221 3.464-1.32 3.741-3.397.033-.185.033-.376.033-.595 0-2.235-1.705-4.437-5.014-4.437h-7.493v16.574h4.212v-6.54h.866c1.58 0 2.105.722 2.97 3.552l.9 2.988h4.33l-1.515-4.499Zm-5.602-5.186h-1.95v-3.744h1.95c1.206 0 2.195.346 2.195 1.826v.061c-.027 1.383-1.051 1.857-2.195 1.857ZM71.908 29.497v-4.306c0-3.552-2.51-4.845-5.385-4.814-1.457.036-3.374.258-4.984.976l-.096 2.736c1.428-.88 2.942-1.07 4.211-1.04 2.32.033 2.664 1.165 2.568 1.604-.03.383-.74.252-1.795.252-2.01-.03-5.602.383-5.847 3.586-.035.127-.035.252-.035.379 0 2.481 2.015 3.612 4.273 3.612 1.547 0 2.882-.53 3.593-1.474 0-.033.03 0 .03 0 0 .47.032.689.09 1.195h3.621a13.623 13.623 0 0 1-.244-2.706Zm-6.069.377c-.929 0-1.607-.474-1.607-1.226v-.157c.123-.944 1.114-1.417 2.38-1.384.249.03 1.64 0 1.64 0 .033.474-.06.947-.277 1.384-.404.785-1.174 1.383-2.136 1.383ZM144.956 29.497v-4.306c0-3.552-2.508-4.845-5.387-4.814-1.458.036-3.374.258-4.981.976l-.099 2.736c1.424-.88 2.945-1.07 4.214-1.04 2.32.033 2.66 1.165 2.568 1.604-.033.383-.747.252-1.798.252-2.013-.03-5.6.383-5.847 3.586-.033.127-.033.252-.033.379 0 2.481 2.013 3.612 4.273 3.612 1.547 0 2.882-.53 3.587-1.474 0-.033.033 0 .033 0 0 .47.033.689.092 1.195h3.62c-.182-.916-.242-1.792-.242-2.706Zm-6.065.377c-.932 0-1.613-.474-1.613-1.226v-.157c.123-.944 1.114-1.417 2.383-1.384.248.03 1.643 0 1.643 0a2.73 2.73 0 0 1-.281 1.384c-.403.785-1.177 1.383-2.132 1.383ZM82.245 15.661v6.009c0 .03 0 .03-.033 0-1.206-1.198-2.723-1.325-3.804-1.325-3.16 0-4.984 2.986-4.984 5.847v.222c.092 3.33 1.98 6.032 5.291 6.032 1.798 0 2.912-.5 3.778-1.632.03-.032.06 0 .06 0v1.384h3.625V15.661h-3.933Zm0 10.783c0 1.666-1.051 2.95-2.386 2.95-1.45 0-2.317-1.221-2.383-2.98v-.158c0-1.507.87-2.86 2.383-2.86 1.458 0 2.386 1.255 2.386 3.018v.03ZM88.186 20.628h3.933v11.568h-3.933V20.628ZM88.186 15.692h3.933v3.05h-3.933v-3.05ZM100.319 20.377c-3.774 0-6.623 2.235-6.623 6.07 0 3.803 2.849 6.035 6.623 6.035 3.778 0 6.624-2.232 6.624-6.036 0-3.834-2.846-6.069-6.624-6.069Zm0 9.309c-1.824 0-2.568-1.544-2.568-3.24 0-1.729.744-3.266 2.568-3.266 1.828 0 2.569 1.537 2.569 3.266 0 1.696-.741 3.24-2.569 3.24ZM108.088 28.268a9.39 9.39 0 0 0 4.333 1.038c1.331 0 2.571-.282 2.571-1.509 0-2.984-7.397-1.574-7.397-7.388 0-3.867 3.653-4.905 6.808-4.905 1.521 0 3.002.222 4.054.598l-.246 3.3a8.488 8.488 0 0 0-3.497-.755c-1.054 0-2.819.097-2.819 1.51 0 2.581 7.43 1.32 7.43 7.074 0 4.116-3.437 5.25-6.904 5.25-1.482 0-3.312-.252-4.671-.691l.338-3.522ZM124.711 21.883c.651-.88 1.643-1.51 3.001-1.51 3.127 0 4.363 2.201 4.363 4.592v7.23h-3.93v-5.971c0-1.95-.618-2.548-1.699-2.548-1.179 0-1.768.755-1.768 2.481v6.039h-3.927V15.692h3.927v6.191c0 .03.033 0 .033 0ZM156.126 23.93c-.711-.44-1.421-.63-2.35-.63-1.735 0-3.034 1.164-3.034 3.178 0 1.853 1.517 3.045 3.219 3.045.896 0 1.798-.185 2.446-.561l.093 2.988c-.959.343-2.139.497-3.19.497-3.775 0-6.654-2.199-6.654-6.033 0-3.837 2.879-6.07 6.654-6.07 1.176 0 2.231.222 3.097.662l-.281 2.924ZM162.41 26.63v5.57h-3.93V15.691h3.93v9.367c0 .034.033 0 .033 0L166 20.342h4.336l-4.274 5.6 4.303 6.257h-4.766l-3.156-5.569s-.033-.027-.033 0ZM172.048 30.465c0-1.138.911-1.972 1.98-1.972 1.061 0 1.972.834 1.972 1.972 0 1.15-.911 1.983-1.972 1.983a1.963 1.963 0 0 1-1.98-1.983Zm1.98 1.656c.885 0 1.577-.704 1.577-1.656 0-.938-.692-1.644-1.577-1.644-.892 0-1.585.706-1.585 1.644 0 .952.693 1.656 1.585 1.656Zm-.411-.507h-.341v-2.287h.854c.532 0 .797.2.797.652 0 .406-.254.585-.582.628l.639 1.007h-.382l-.591-.992h-.394v.992Zm.409-1.286c.289 0 .543-.022.543-.37 0-.285-.25-.333-.49-.333h-.462v.703h.409Z" fill="#000"/></svg>