<svg width="157" height="38" fill="none" xmlns="http://www.w3.org/2000/svg"><g clip-path="url(#a)" fill="#F50B5A"><path d="M21.938 0h.065c7.3 12.636 14.592 25.279 21.914 37.903-2.736-.01-5.473.032-8.21-.02C29.795 27.645 23.888 17.4 17.962 7.17c-.078-.117.01-.244.06-.35 1.29-2.28 2.647-4.53 3.917-6.821ZM77.504 0h8.348c0 10.14.002 20.28-.002 30.42-.006 1.201.169 2.572 1.161 3.387.936.714 2.193.497 3.285.44l.098.073c.027.967.018 1.935.003 2.903-.029.02-.087.063-.117.083-1.204.306-2.457.224-3.671.035-1.448-.255-2.844-1.123-3.509-2.468-.93-1.608-.85-3.513-.95-5.306.001-8.842.007-17.684-.002-26.525-1.547-.038-3.094.014-4.64-.014-.018-1.01 0-2.019-.004-3.028ZM60.296 10.285c2.17-.474 4.426-.424 6.593.027 1.944.414 3.781 1.497 4.924 3.143 1.262 1.853 1.698 4.14 1.707 6.35 0 4.265.002 8.53-.003 12.794-.001.471-.015.974.215 1.402.362.296.838.38 1.295.365.85-.1 1.71-.066 2.565-.057.02 1.005.009 2.012.002 3.018-1.39.032-2.781-.003-4.17.012-1.028 0-2.219-.119-2.892-1.004-.858-1.354-.444-3.025-.341-4.517-.65 1.252-1.381 2.495-2.431 3.46-1.56 1.619-3.754 2.441-5.947 2.722h-1.717a.933.933 0 0 0-.33-.098c-1.757-.155-3.487-.774-4.898-1.839-1.288-.96-2.212-2.38-2.603-3.936-.396-1.485-.3-3.077.107-4.548.573-2.02 2.208-3.542 4.006-4.523 4.15-2.028 8.899-2.148 13.425-2.122.147-.917.044-1.858-.04-2.776-.24-1.53-.91-3.134-2.281-3.979-1.645-1.068-3.732-1.249-5.63-.924-2.23.252-4.32 1.198-6.154 2.462-.615-.873-1.142-1.812-1.709-2.717 1.833-1.409 4.055-2.26 6.307-2.715Zm5.666 13.45c-2.475.143-5.014.441-7.27 1.535-1.127.593-2.165 1.471-2.631 2.683-.5 1.256-.327 2.685.162 3.917.667 1.484 2.059 2.549 3.632 2.924 2.843.695 5.957-.535 7.672-2.876 1.121-1.412 1.823-3.114 2.145-4.878.319-1.093.14-2.232.144-3.345-1.284.01-2.573-.052-3.854.04ZM123.326 12.987c3.951-2.805 9.215-3.79 13.882-2.414 1.574.53 3.018 1.489 3.951 2.881 1.11 1.576 1.552 3.509 1.7 5.402.02 4.74-.007 9.478.012 14.216-.062.519.215 1.113.761 1.223 1.095.08 2.219-.118 3.303.12.021.97.013 1.944.004 2.916-1.423.016-2.844.001-4.264.008-.679.007-1.393-.038-1.993-.38-.653-.295-1.034-.956-1.218-1.62a27.76 27.76 0 0 1 .072-3.521c-.759 1.555-1.76 3.005-3.119 4.1-1.484 1.23-3.372 1.828-5.258 2.082h-1.432c-.733-.175-1.513-.138-2.241-.366-1.405-.433-2.829-1.033-3.859-2.118-2.262-2.057-2.805-5.553-1.757-8.348.713-1.938 2.353-3.38 4.183-4.253 4.101-1.93 8.763-1.99 13.204-1.978.002-1.841-.047-3.835-1.093-5.433-.569-.968-1.579-1.56-2.594-1.964-1.592-.567-3.317-.48-4.954-.198-2.014.34-3.897 1.225-5.57 2.374-.59-.899-1.146-1.82-1.72-2.729Zm11.984 10.759c-1.333.093-2.678.165-3.985.464-1.64.304-3.295.854-4.595 1.934-1.189 1.012-1.849 2.655-1.545 4.208.112 1.2.73 2.325 1.578 3.168 2.587 2.266 6.855 1.78 9.203-.613 2.522-2.308 3.445-5.894 3.292-9.211-1.316.016-2.639-.069-3.948.05ZM90.884 10.616c3.696-.003 7.394-.007 11.092.002.003 1.008.011 2.017-.002 3.025-1.262.011-2.524-.004-3.785.002 2.057 5.415 4.061 10.85 6.104 16.27.436 1.188.939 2.362 1.12 3.626l.158.003c.106-1.31.681-2.502 1.114-3.724 1.976-5.238 3.921-10.487 5.892-15.728.104-.175.232-.498-.089-.498-1.155.09-2.316.053-3.471.04a11.157 11.157 0 0 1-.1-.105c-.028-.97-.016-1.942-.009-2.913 3.697-.003 7.394-.007 11.092.002.002 1.008.012 2.017-.002 3.025-1.132-.016-2.271.064-3.397-.06-.161.11-.215.293-.262.471-2.952 7.761-5.962 15.502-8.887 23.271-1.312.016-2.625.026-3.935 0-3.018-7.89-6.055-15.771-9.053-23.668-1.158-.042-2.316.023-3.47-.024l-.1-.103c-.028-.971-.017-1.942-.01-2.914ZM12.446 16.506l.069-.021c.388.85.941 1.607 1.376 2.433.835 1.55 1.83 3.012 2.612 4.592-.624 1.488-1.63 2.811-2.365 4.26-.583 1-1.212 1.986-1.723 3.021 2.782.024 5.566-.013 8.347.016 1.358 2.37 2.752 4.718 4.094 7.097-8.256 0-16.513.007-24.769-.004 1.582-2.895 3.317-5.735 4.946-8.616 2.004-3.462 3.998-6.934 6.013-10.392.472-.792.87-1.628 1.4-2.386ZM152.648 33c.097-.163.3-.108.461-.122 1.296.005 2.592.006 3.891.005v4.454c-1.454-.006-2.907.01-4.359-.005-.008-1.443-.02-2.888.007-4.332Z"/></g><defs><clipPath id="a"><path fill="#fff" d="M0 0h157v38H0z"/></clipPath></defs></svg>