<svg width="188" height="54" fill="none" xmlns="http://www.w3.org/2000/svg"><g clip-path="url(#a)"><path fill-rule="evenodd" clip-rule="evenodd" d="M90.397 37.956c-4.18 0-5.96-1.909-5.96-5.82V21.772h-3.29v-5.181h3.29v-6.365l7.295-.91v7.274h4.982v5.182h-4.982v8.456c0 1 .534 1.636 1.513 1.636.978 0 2.046-.272 3.825-1.091V36.5c-2.225 1-4.272 1.455-6.673 1.455Zm18.769-11.91h-3.645c0-4.274.443-5.456 1.779-5.456 1.333 0 1.866 1.092 1.866 5.455Zm7.206 9.91-1.513-4.908c-2.402 1.18-4.181 1.545-5.694 1.545-2.046 0-3.379-.546-3.645-3.637h10.584V26.41c0-6.546-3.29-10.274-8.804-10.274-5.249 0-8.719 3.727-8.719 10.274v1.182c0 6.547 3.382 10.273 9.342 10.273 3.378 0 5.335-.453 8.449-1.909Zm13.52 1.636V23.863c0-1.455-.444-2.181-1.6-2.181-.624 0-1.157.181-1.779.546v15.365h-7.473V17.136l7.473-.91v4.183h.177c2.225-3 3.915-4.182 6.228-4.182 2.846 0 4.448 1.818 4.448 5.728v15.638h-7.474Zm21.348-10.546c0 4.366-.711 5.819-1.867 5.819-1.156 0-1.869-1.454-1.869-5.819s.712-5.819 1.869-5.819 1.867 1.454 1.867 5.819Zm7.474 9.91V8.226l-7.473 1v10.637h-.178c-1.335-2.273-2.668-3.637-5.07-3.637-3.646 0-5.782 3.637-5.782 10.183v1.274c0 6.545 1.957 10.181 5.782 10.181 2.135 0 3.558-1.363 5.07-3.637h.178v3.728l7.473-.999Zm13.521-9.273c0 4.453-.446 5.636-1.869 5.636-1.333 0-1.869-1.183-1.869-5.636v-1.274c0-4.455.536-5.637 1.869-5.637 1.423 0 1.869 1.182 1.869 5.637v1.274Zm7.471 0v-1.274c0-6.546-3.469-10.274-9.34-10.274-5.87 0-9.25 3.727-9.25 10.274v1.274c0 6.545 3.38 10.273 9.25 10.273 5.871 0 9.34-3.728 9.34-10.273Zm-139.478 10c5.605 0 10.14-4.818 10.14-10.637 0-5.91-4.535-10.638-10.14-10.638-5.604 0-10.14 4.729-10.14 10.638 0 5.819 4.536 10.638 10.14 10.638Z" fill="#1879BF"/><path fill-rule="evenodd" clip-rule="evenodd" d="M8.005 27.046c0-12.785 9.901-23.202 22.083-23.202 12.182 0 22.083 10.417 22.083 23.202 0 12.786-9.903 23.111-22.083 23.111-12.18 0-22.083-10.325-22.083-23.111ZM30.088 4.423c-11.835 0-21.504 10.13-21.504 22.623 0 12.49 9.668 22.532 21.504 22.532 11.836 0 21.504-10.042 21.504-22.532 0-12.492-9.668-22.623-21.504-22.623ZM63.534 37.684c5.604 0 10.14-4.82 10.14-10.638 0-5.91-4.536-10.638-10.14-10.638-5.605 0-10.052 4.728-10.052 10.638 0 5.819 4.447 10.638 10.052 10.638Z" fill="#C4D64E"/><path d="M51 27c0 12.193-9.443 22-21 22S9 39.193 9 27 18.443 5 30 5s21 9.807 21 22Z" stroke="#C4D64E" stroke-width="2"/></g><defs><clipPath id="a"><path fill="#fff" d="M0 0h188v54H0z"/></clipPath></defs></svg>