<svg width="56" height="56" fill="none" xmlns="http://www.w3.org/2000/svg"><path d="M6 36v-5.438l2.093-.524a4.001 4.001 0 0 0 1.43-.68L16.667 24h14.692l6.154 4.396c.428.306.913.524 1.426.642L50 31.591V36h-3v2h3a2 2 0 0 0 2-2v-4.409a2 2 0 0 0-1.55-1.949L39.388 27.09a1.999 1.999 0 0 1-.712-.322l-6.154-4.396A2 2 0 0 0 31.359 22H16.667a2 2 0 0 0-1.2.4l-7.144 5.358c-.213.16-.456.275-.715.34l-2.093.523A2 2 0 0 0 4 30.561V36a2 2 0 0 0 2 2h4v-2H6Z" fill="#2B6BF3"/><path d="M21 36v2h19v-2H21Z" fill="#2B6BF3"/><path fill-rule="evenodd" clip-rule="evenodd" d="M13.5 39a2.5 2.5 0 1 0 0-5 2.5 2.5 0 0 0 0 5Zm0 2a4.5 4.5 0 1 0 0-9 4.5 4.5 0 0 0 0 9ZM43.5 39a2.5 2.5 0 1 0 0-5 2.5 2.5 0 0 0 0 5Zm0 2a4.5 4.5 0 1 0 0-9 4.5 4.5 0 0 0 0 9Z" fill="#2B6BF3"/><path d="M19 14.396v-2.355l.002-.003-.001.963L19 14.396Zm1.003-2.394L19.147 12h1.669-.153l-.66.002Zm2.008.003A41.458 41.458 0 0 0 21.55 12h3.058l-.183.001H24l-.996.002-.003.995-.001.527-.005-.533-.013-.972-.97-.015Zm3.993-.002L25.66 12h.089l.907.001h.082l.004.002h.218a.164.164 0 0 1 .007.005l-.964-.006Zm.993.037.001.002v2.217V13.002l-.001-.962ZM26.995 18l.003-1.045v2.003a.21.21 0 0 1-.008.01l.005-.969Zm-.026.99a.12.12 0 0 1-.008.006l-1.747.001c.262 0 .523-.002.785-.003l.97-.004Zm-5.088.008h.369L19.04 19l-.003-.002h2.843ZM19 18.962 19 18.959v-2.782l.001 1.821v.964ZM23 14.504v-.165.113L23 15h-.002l.001-.453v-.044ZM19 12v-1 1Z" stroke="#FFDD2D" stroke-width="2"/></svg>