<svg width="132" height="88" viewBox="0 0 132 88" fill="none" xmlns="http://www.w3.org/2000/svg">
<path d="M103.4 88H24.2C10.857 88 0 77.143 0 63.8C0 50.27 11.11 39.2106 24.761 39.6066C24.387 38.1766 24.2 36.7048 24.2 35.2C24.2 25.4958 32.0958 17.6 41.8 17.6C43.703 17.6 45.5642 17.9058 47.3594 18.5108C52.877 7.1962 64.284 0 77 0C94.7254 0 109.23 14.0448 109.969 31.5876C122.841 34.5994 132 46.013 132 59.4C132 75.1696 119.17 88 103.4 88Z" fill="white"/>
<path d="M103.4 88H24.2C10.857 88 0 77.143 0 63.8C0 50.27 11.11 39.2106 24.761 39.6066C24.387 38.1766 24.2 36.7048 24.2 35.2C24.2 25.4958 32.0958 17.6 41.8 17.6C43.703 17.6 45.5642 17.9058 47.3594 18.5108C52.877 7.1962 64.284 0 77 0C94.7254 0 109.23 14.0448 109.969 31.5876C122.841 34.5994 132 46.013 132 59.4C132 75.1696 119.17 88 103.4 88ZM24.2 44C13.2836 44 4.4 52.8814 4.4 63.8C4.4 74.7186 13.2836 83.6 24.2 83.6H103.4C116.743 83.6 127.6 72.743 127.6 59.4C127.6 47.5442 119.112 37.521 107.417 35.563C106.344 35.3826 105.563 34.4454 105.58 33.3564C105.58 33.3146 105.593 33.088 105.596 33.044C105.6 17.2304 92.7696 4.4 77 4.4C65.3422 4.4 54.9538 11.3806 50.5318 22.1826C50.303 22.7436 49.8498 23.1858 49.2822 23.4036C48.7168 23.6258 48.0832 23.595 47.5376 23.331C45.716 22.4466 43.7866 22 41.8 22C34.5202 22 28.6 27.9202 28.6 35.2C28.6 37.2812 29.084 39.2876 30.0366 41.1642C30.415 41.9078 30.3402 42.801 29.843 43.472C29.3458 44.143 28.523 44.4796 27.6914 44.3278C26.4506 44.1078 25.3088 44 24.2 44Z" fill="#D0DEFD"/>
<path d="M129.8 61.6C128.586 61.6 127.6 60.6166 127.6 59.4C127.6 46.057 116.743 35.2 103.4 35.2C90.057 35.2 79.2 46.057 79.2 59.4C79.2 60.6166 78.2144 61.6 77 61.6C75.7856 61.6 74.8 60.6166 74.8 59.4C74.8 43.6304 87.6304 30.8 103.4 30.8C119.17 30.8 132 43.6304 132 59.4C132 60.6166 131.014 61.6 129.8 61.6Z" fill="#D0DEFD"/>
<path d="M48.2196 46.1978C47.3352 46.1978 46.4992 45.661 46.1648 44.781C44.7282 41.0212 44 37.059 44 33C44 14.8038 58.8038 0 77 0C78.2144 0 79.2 0.9834 79.2 2.2C79.2 3.4166 78.2144 4.4 77 4.4C61.2304 4.4 48.4 17.2304 48.4 33C48.4 36.52 49.0314 39.9542 50.2766 43.2146C50.71 44.3498 50.1424 45.6214 49.0072 46.0548C48.7476 46.1516 48.4814 46.1978 48.2196 46.1978Z" fill="#D0DEFD"/>
</svg>
