<svg width="83" height="56" viewBox="0 0 83 56" fill="none" xmlns="http://www.w3.org/2000/svg">
<path d="M33.7791 0C21.8054 0 13.1223 9.71309 12.4862 20.3362C5.2372 22.7878 0 29.5978 0 37.6551C0 47.7639 8.23264 56 18.3372 56H64.6628C75.3209 56 83 48.6845 83 39.5862C83 32.4311 78.3244 25.5007 71.2376 23.5647C70.7764 17.9754 68.0344 13.6704 64.2104 11.375C60.5202 9.15996 55.9898 8.7751 51.9051 10.2285C48.428 4.52664 42.0632 0 33.7791 0Z" fill="white"/>
<path d="M33.7791 0C21.8054 0 13.1223 9.71309 12.4862 20.3362C5.2372 22.7878 0 29.5978 0 37.6551C0 47.7639 8.23264 56 18.3372 56H64.6628C75.3209 56 83 48.6845 83 39.5862C83 32.4311 78.3244 25.5007 71.2376 23.5647C70.7764 17.9754 68.0344 13.6704 64.2104 11.375C60.5202 9.15996 55.9898 8.7751 51.9051 10.2285C48.428 4.52664 42.0632 0 33.7791 0ZM33.7791 3.86206C41.2756 3.86206 46.84 8.21027 49.4321 13.3965C49.5445 13.6248 49.7008 13.8287 49.8921 13.9963C50.0835 14.164 50.3061 14.2921 50.5471 14.3734C50.7881 14.4547 51.0428 14.4876 51.2966 14.4701C51.5503 14.4527 51.7981 14.3852 52.0258 14.2716C55.2821 12.6428 59.1632 12.8291 62.2199 14.6638C65.2765 16.4985 67.5581 19.9004 67.5581 25.1034C67.5585 25.5577 67.719 25.9974 68.0113 26.3451C68.3037 26.6928 68.7092 26.9261 69.1566 27.0043C74.9558 27.9777 79.1395 33.7675 79.1395 39.5862C79.1395 46.5729 73.6327 52.1379 64.6628 52.1379H18.3372C10.319 52.1379 3.86047 45.6766 3.86047 37.6551C3.86047 30.8676 8.51107 25.2126 14.7783 23.625C15.1979 23.5167 15.5688 23.2703 15.8314 22.9255C16.094 22.5807 16.233 22.1575 16.226 21.7241C16.1392 12.6615 23.457 3.86206 33.7791 3.86206Z" fill="#D0DEFD"/>
</svg>
