<svg width="80" height="80" fill="none" xmlns="http://www.w3.org/2000/svg"><g clip-path="url(#a)"><rect width="80" height="80" rx="40" fill="#fff"/><g filter="url(#b)"><circle cx="40" cy="40" r="40" fill="#fff"/></g><path d="M40 21c-9.312 0-16.889 7.577-16.889 16.889H21v10.555h6.333V37.89c0-6.986 5.681-12.667 12.667-12.667s12.667 5.681 12.667 12.667v9.426L41.47 54.778H37.89V59h4.862l14.138-9.426v-1.13H59V37.89h-2.111C56.889 28.577 49.312 21 40 21Z" fill="#FFDD2D"/><path d="M51 40c0-6.065-4.935-11-11-11s-11 4.935-11 11 4.935 11 11 11 11-4.935 11-11Z" fill="#FFDD2D"/></g><defs><clipPath id="a"><rect width="80" height="80" rx="40" fill="#fff"/></clipPath><filter id="b" x="-16" y="-8" width="112" height="112" filterUnits="userSpaceOnUse" color-interpolation-filters="sRGB"><feFlood flood-opacity="0" result="BackgroundImageFix"/><feColorMatrix in="SourceAlpha" values="0 0 0 0 0 0 0 0 0 0 0 0 0 0 0 0 0 0 127 0" result="hardAlpha"/><feOffset dy="8"/><feGaussianBlur stdDeviation="8"/><feColorMatrix values="0 0 0 0 0.168627 0 0 0 0 0.419608 0 0 0 0 0.952941 0 0 0 0.16 0"/><feBlend in2="BackgroundImageFix" result="effect1_dropShadow_3_59"/><feBlend in="SourceGraphic" in2="effect1_dropShadow_3_59" result="shape"/></filter></defs></svg>