<svg width="102" height="76" fill="none" xmlns="http://www.w3.org/2000/svg"><path d="M89.002 6C85.14 6 82 9.137 82 12.996 82 16.856 85.14 20 89.002 20 92.86 20 96 16.855 96 12.996A7.002 7.002 0 0 0 89.002 6Zm0 10.445a3.453 3.453 0 0 1-3.452-3.449 3.453 3.453 0 0 1 3.452-3.45 3.455 3.455 0 0 1 3.448 3.45 3.452 3.452 0 0 1-3.448 3.45Z" fill="#C2D2F4"/><path d="M89.002 6C85.14 6 82 9.137 82 12.996 82 16.856 85.14 20 89.002 20 92.86 20 96 16.855 96 12.996A7.002 7.002 0 0 0 89.002 6Zm0 10.445a3.453 3.453 0 0 1-3.452-3.449 3.453 3.453 0 0 1 3.452-3.45 3.455 3.455 0 0 1 3.448 3.45 3.452 3.452 0 0 1-3.448 3.45Z" fill="#B7C6E7"/><path d="M88.502 0C81.058 0 75 6.095 75 13.594c0 3.965 1.258 6.745 4.648 10.256 1.402 1.45 3.247 5.794 4.59 8.965 2.02 4.75 2.625 6.185 4.264 6.185 1.639 0 2.244-1.435 4.264-6.185 1.343-3.171 3.184-7.515 4.59-8.965 3.386-3.511 4.644-6.291 4.644-10.256C102 6.095 95.946 0 88.502 0Zm6.318 21.367c-1.86 1.924-3.693 6.24-5.304 10.048-.327.762-.684 1.603-1.014 2.354-.334-.747-.691-1.588-1.014-2.346-1.615-3.812-3.448-8.132-5.304-10.056-2.73-2.827-3.646-4.79-3.646-7.773 0-5.536 4.465-10.032 9.964-10.032 5.49 0 9.964 4.496 9.964 10.032.004 2.983-.912 4.946-3.646 7.773Z" fill="#C2D2F4"/><path d="M88.502 0C81.058 0 75 6.095 75 13.594c0 3.965 1.258 6.745 4.648 10.256 1.402 1.45 3.247 5.794 4.59 8.965 2.02 4.75 2.625 6.185 4.264 6.185 1.639 0 2.244-1.435 4.264-6.185 1.343-3.171 3.184-7.515 4.59-8.965 3.386-3.511 4.644-6.291 4.644-10.256C102 6.095 95.946 0 88.502 0Zm6.318 21.367c-1.86 1.924-3.693 6.24-5.304 10.048-.327.762-.684 1.603-1.014 2.354-.334-.747-.691-1.588-1.014-2.346-1.615-3.812-3.448-8.132-5.304-10.056-2.73-2.827-3.646-4.79-3.646-7.773 0-5.536 4.465-10.032 9.964-10.032 5.49 0 9.964 4.496 9.964 10.032.004 2.983-.912 4.946-3.646 7.773Z" fill="#B7C6E7"/><path d="M9 69.553A27.656 27.656 0 0 0 14.456 73L16 70.018A23.943 23.943 0 0 1 11.24 67L9 69.553Z" fill="#C2D2F4"/><path d="M9 69.553A27.656 27.656 0 0 0 14.456 73L16 70.018A23.943 23.943 0 0 1 11.24 67L9 69.553Z" fill="#B7C6E7"/><path d="M0 59.495c.06.096 1.345 2.538 3.97 5.505L7 62.823C4.672 60.2 3.515 58.023 3.502 58L0 59.495Z" fill="#C2D2F4"/><path d="M0 59.495c.06.096 1.345 2.538 3.97 5.505L7 62.823C4.672 60.2 3.515 58.023 3.502 58L0 59.495Z" fill="#B7C6E7"/><path d="m68 38.31.574 3.69c1.82-.28 3.859-.337 6.123-.152L75 38.125c-2.575-.218-4.884-.148-7 .185Z" fill="#C2D2F4"/><path d="m68 38.31.574 3.69c1.82-.28 3.859-.337 6.123-.152L75 38.125c-2.575-.218-4.884-.148-7 .185Z" fill="#B7C6E7"/><path d="M57 45.69 59.778 48c1.26-1.621 2.645-2.866 4.222-3.794L62.234 41c-1.973 1.167-3.684 2.703-5.234 4.69Z" fill="#C2D2F4"/><path d="M57 45.69 59.778 48c1.26-1.621 2.645-2.866 4.222-3.794L62.234 41c-1.973 1.167-3.684 2.703-5.234 4.69Z" fill="#B7C6E7"/><path d="M50 56.113 52.85 58A95.009 95.009 0 0 0 56 52.679L53.034 51c-1.096 1.967-2.058 3.593-3.034 5.113Z" fill="#C2D2F4"/><path d="M50 56.113 52.85 58A95.009 95.009 0 0 0 56 52.679L53.034 51c-1.096 1.967-2.058 3.593-3.034 5.113Z" fill="#B7C6E7"/><path d="M81 43.392c1.853.41 3.835.957 5.9 1.608l1.1-3.312A72.188 72.188 0 0 0 81.791 40L81 43.392Z" fill="#C2D2F4"/><path d="M81 43.392c1.853.41 3.835.957 5.9 1.608l1.1-3.312A72.188 72.188 0 0 0 81.791 40L81 43.392Z" fill="#B7C6E7"/><path d="M25.97 72.374A17.284 17.284 0 0 1 21.6 72L21 75.55c1.38.303 2.804.45 4.24.45.276 0 .56-.008.846-.016.308-.016.613-.032.914-.056l-.22-3.602-.81.048Z" fill="#C2D2F4"/><path d="M25.97 72.374A17.284 17.284 0 0 1 21.6 72L21 75.55c1.38.303 2.804.45 4.24.45.276 0 .56-.008.846-.016.308-.016.613-.032.914-.056l-.22-3.602-.81.048Z" fill="#B7C6E7"/><path d="M33 71.512 34.068 75c2.032-.686 4.03-1.653 5.932-2.859L38.201 69C36.53 70.06 34.78 70.911 33 71.512Z" fill="#C2D2F4"/><path d="M33 71.512 34.068 75c2.032-.686 4.03-1.653 5.932-2.859L38.201 69C36.53 70.06 34.78 70.911 33 71.512Z" fill="#B7C6E7"/><path d="M43 65.366 45.087 68A42.268 42.268 0 0 0 49 63.243L46.596 61A39.284 39.284 0 0 1 43 65.366Z" fill="#C2D2F4"/><path d="M43 65.366 45.087 68A42.268 42.268 0 0 0 49 63.243L46.596 61A39.284 39.284 0 0 1 43 65.366Z" fill="#B7C6E7"/></svg>