<svg width="80" height="80" fill="none" xmlns="http://www.w3.org/2000/svg"><g clip-path="url(#a)"><rect width="80" height="80" rx="40" fill="#fff"/><g filter="url(#b)"><circle cx="40" cy="40" r="40" fill="#fff"/></g><path d="M44 47h-8v-3l-14-3v12.527C22 55.448 23.592 57 25.562 57h28.876C56.408 57 58 55.448 58 53.527V41l-14 3v3Z" fill="#FD466E"/><path d="M54.438 30H48v-1.98c0-3.047-2.082-5.02-5-5.02h-6c-2.918 0-5 1.973-5 5.02V30h-6.428c-1.97 0-3.562 1.663-3.562 3.72L22 39l14 3v-3h8v3l14-3v-5.319C58 31.662 56.408 30 54.438 30ZM35 28.5c0-1 .5-1.5 1.5-1.5h7c1 0 1.5.5 1.5 1.5V30H35v-1.5Z" fill="#FD466E"/><path d="M43 40h-6v6h6v-6Z" fill="#FD466E"/></g><defs><clipPath id="a"><rect width="80" height="80" rx="40" fill="#fff"/></clipPath><filter id="b" x="-16" y="-8" width="112" height="112" filterUnits="userSpaceOnUse" color-interpolation-filters="sRGB"><feFlood flood-opacity="0" result="BackgroundImageFix"/><feColorMatrix in="SourceAlpha" values="0 0 0 0 0 0 0 0 0 0 0 0 0 0 0 0 0 0 127 0" result="hardAlpha"/><feOffset dy="8"/><feGaussianBlur stdDeviation="8"/><feColorMatrix values="0 0 0 0 0.168627 0 0 0 0 0.419608 0 0 0 0 0.952941 0 0 0 0.16 0"/><feBlend in2="BackgroundImageFix" result="effect1_dropShadow_3_67"/><feBlend in="SourceGraphic" in2="effect1_dropShadow_3_67" result="shape"/></filter></defs></svg>