<svg width="44" height="46" fill="none" xmlns="http://www.w3.org/2000/svg"><path fill-rule="evenodd" clip-rule="evenodd" d="M34.868 29.887c0 2.49-.83 11.622-24.49 11.622v-2.49c20.339 0 22-6.642 22-9.132h2.49Z" fill="#C2D2F4"/><path fill-rule="evenodd" clip-rule="evenodd" d="M34.868 29.887c0 2.49-.83 11.622-24.49 11.622v-2.49c20.339 0 22-6.642 22-9.132h2.49Z" fill="#B7C6E7"/><path fill-rule="evenodd" clip-rule="evenodd" d="M37.92 10.336c.012-.048.013-.05.013-.01 0-2.369-1.93-4.29-4.31-4.29-2.381 0-4.311 1.921-4.311 4.29 0-.04 0-.038.014.01.04.149.198.735.822 1.832.733 1.29 1.79 2.738 2.972 4.168.168.202.335.402.503.598.167-.196.335-.396.502-.599 1.182-1.43 2.24-2.877 2.973-4.167.623-1.097.781-1.683.822-1.832Zm-4.297 15.4S44 16.029 44 10.326C44 4.623 39.354 0 33.623 0 27.89 0 23.245 4.623 23.245 10.326s10.378 15.41 10.378 15.41Z" fill="#C2D2F4"/><path fill-rule="evenodd" clip-rule="evenodd" d="M37.92 10.336c.012-.048.013-.05.013-.01 0-2.369-1.93-4.29-4.31-4.29-2.381 0-4.311 1.921-4.311 4.29 0-.04 0-.038.014.01.04.149.198.735.822 1.832.733 1.29 1.79 2.738 2.972 4.168.168.202.335.402.503.598.167-.196.335-.396.502-.599 1.182-1.43 2.24-2.877 2.973-4.167.623-1.097.781-1.683.822-1.832Zm-4.297 15.4S44 16.029 44 10.326C44 4.623 39.354 0 33.623 0 27.89 0 23.245 4.623 23.245 10.326s10.378 15.41 10.378 15.41Z" fill="#B7C6E7"/><path fill-rule="evenodd" clip-rule="evenodd" d="M14.674 20.298c.013-.048.014-.05.014-.01 0-2.369-1.93-4.289-4.31-4.289-2.381 0-4.311 1.92-4.311 4.29 0-.041 0-.039.013.01.04.148.199.734.822 1.832.734 1.29 1.791 2.737 2.973 4.167.167.202.335.402.502.598.168-.196.335-.396.503-.598 1.181-1.43 2.24-2.877 2.972-4.167.624-1.098.782-1.684.822-1.833Zm-4.297 15.4s10.378-9.707 10.378-15.41c0-5.703-4.646-10.326-10.378-10.326C4.647 9.962 0 14.585 0 20.288s10.377 15.41 10.377 15.41Z" fill="#C2D2F4"/><path fill-rule="evenodd" clip-rule="evenodd" d="M14.674 20.298c.013-.048.014-.05.014-.01 0-2.369-1.93-4.289-4.31-4.289-2.381 0-4.311 1.92-4.311 4.29 0-.041 0-.039.013.01.04.148.199.734.822 1.832.734 1.29 1.791 2.737 2.973 4.167.167.202.335.402.502.598.168-.196.335-.396.503-.598 1.181-1.43 2.24-2.877 2.972-4.167.624-1.098.782-1.684.822-1.833Zm-4.297 15.4s10.378-9.707 10.378-15.41c0-5.703-4.646-10.326-10.378-10.326C4.647 9.962 0 14.585 0 20.288s10.377 15.41 10.377 15.41Z" fill="#B7C6E7"/></svg>