<svg width="24" height="112" fill="none" xmlns="http://www.w3.org/2000/svg"><path d="M18 98c0 3.314-6 10-6 10s-6-6.686-6-10a6 6 0 0 1 12 0Z" fill="#FFD600"/><circle cx="12" cy="12" r="12" fill="#2B6BF3" fill-opacity=".08"/><circle cx="12" cy="12" r="5" fill="#2B6BF3"/><circle cx="12" cy="12" r="2" fill="#fff"/><path d="M14 82a2 2 0 1 1-4 0 2 2 0 0 1 4 0ZM14 42a2 2 0 1 1-4 0 2 2 0 0 1 4 0ZM14 50a2 2 0 1 1-4 0 2 2 0 0 1 4 0ZM14 58a2 2 0 1 1-4 0 2 2 0 0 1 4 0ZM14 66a2 2 0 1 1-4 0 2 2 0 0 1 4 0ZM14 74a2 2 0 1 1-4 0 2 2 0 0 1 4 0ZM14 34a2 2 0 1 1-4 0 2 2 0 0 1 4 0Z" fill="#2B6BF3" fill-opacity=".08"/></svg>