<svg width="657" height="672" viewBox="0 0 657 672" fill="none" xmlns="http://www.w3.org/2000/svg">
<path d="M491 410C491 411.105 490.105 412 489 412H481C479.895 412 479 412.895 479 414V613C479 614.105 478.105 615 477 615H468C466.895 615 466 614.105 466 613V526C466 524.895 465.105 524 464 524H454C452.895 524 452 523.105 452 522V440C452 438.895 451.105 438 450 438H448C446.895 438 446 437.105 446 436V434.5C446 433.672 445.328 433 444.5 433C443.672 433 443 432.328 443 431.5V431C443 429.895 442.105 429 441 429H429C427.895 429 427 428.105 427 427V410.5C427 410.224 426.776 410 426.5 410C426.224 410 426 409.776 426 409.5V387C426 386.448 425.552 386 425 386C424.448 386 424 386.448 424 387V409.5C424 409.776 423.776 410 423.5 410C423.224 410 423 410.224 423 410.5V427C423 428.105 422.105 429 421 429H410C408.895 429 408 429.895 408 431C408 432.105 407.105 433 406 433C404.895 433 404 433.895 404 435V436C404 437.105 403.105 438 402 438H401C399.895 438 399 438.895 399 440V605C399 606.105 398.105 607 397 607H391C389.895 607 389 606.105 389 605V521C389 519.895 388.105 519 387 519H350C348.895 519 348 519.895 348 521V649C348 650.105 347.105 651 346 651H344C342.895 651 342 650.105 342 649V630C342 628.895 341.105 628 340 628H338C336.895 628 336 627.105 336 626V600C336 598.895 335.105 598 334 598H302C300.895 598 300 598.895 300 600V632C300 633.105 299.105 634 298 634H293C291.895 634 291 633.105 291 632V609C291 607.895 290.105 607 289 607H267C265.895 607 265 606.105 265 605V529C265 527.895 264.105 527 263 527H255C253.895 527 253 526.105 253 525V494C253 492.895 252.105 492 251 492H244C242.895 492 242 491.105 242 490V456C242 454.895 241.105 454 240 454H238C236.895 454 236 453.105 236 452V400C236 398.895 235.105 398 234 398C232.895 398 232 398.895 232 400V452C232 453.105 231.105 454 230 454H228C226.895 454 226 454.895 226 456V490C226 491.105 225.105 492 224 492H218C216.895 492 216 492.895 216 494V525C216 526.105 215.105 527 214 527H205C203.895 527 203 527.895 203 529V615C203 616.105 202.105 617 201 617H198C196.895 617 196 616.105 196 615V552C196 550.895 195.105 550 194 550H188C186.895 550 186 549.105 186 548V383C186 381.895 185.105 381 184 381H176C174.895 381 174 380.105 174 379V327C174 325.895 173.105 325 172 325H168C166.895 325 166 324.105 166 323V311.828C166 311.298 165.789 310.789 165.414 310.414L151.586 296.586C151.211 296.211 150.702 296 150.172 296H138C136.895 296 136 296.895 136 298V323C136 324.105 135.105 325 134 325H132C130.895 325 130 325.895 130 327V379C130 380.105 129.105 381 128 381H127C125.895 381 125 381.895 125 383V517C125 518.105 124.105 519 123 519H116C114.895 519 114 518.105 114 517V473C114 471.895 113.105 471 112 471H53C51.8954 471 51 471.895 51 473V649C51 650.105 50.1046 651 49 651H47C45.8954 651 45 650.105 45 649V619C45 617.895 44.1046 617 43 617H39C37.8954 617 37 616.105 37 615V583C37 581.895 36.1046 581 35 581H33C31.8954 581 31 580.105 31 579V540C31 538.895 30.1046 538 29 538H8C6.89543 538 6 538.895 6 540V579C6 580.105 5.10457 581 4 581H2C0.895431 581 0 581.895 0 583V670C0 671.105 0.895423 672 1.99999 672H655C656.105 672 657 671.105 657 670V621C657 619.895 656.105 619 655 619H623C621.895 619 621 619.895 621 621V631C621 632.105 620.105 633 619 633H618C616.895 633 616 632.105 616 631V630.5C616 629.672 615.328 629 614.5 629C613.672 629 613 628.328 613 627.5V496C613 494.895 612.105 494 611 494H548C546.895 494 546 494.895 546 496V511C546 512.105 545.105 513 544 513H534C532.895 513 532 512.105 532 511V385C532 383.895 531.105 383 530 383H509.828C509.298 383 508.789 383.211 508.414 383.586L491.586 400.414C491.211 400.789 491 401.298 491 401.828V410Z" fill="#E3EBFA"/>
<path d="M508.4 88H429.2C415.857 88 405 77.143 405 63.8C405 50.27 416.11 39.2106 429.761 39.6066C429.387 38.1766 429.2 36.7048 429.2 35.2C429.2 25.4958 437.096 17.6 446.8 17.6C448.703 17.6 450.564 17.9058 452.359 18.5108C457.877 7.1962 469.284 0 482 0C499.725 0 514.23 14.0448 514.969 31.5876C527.841 34.5994 537 46.013 537 59.4C537 75.1696 524.17 88 508.4 88Z" fill="white"/>
<path d="M508.4 88H429.2C415.857 88 405 77.143 405 63.8C405 50.27 416.11 39.2106 429.761 39.6066C429.387 38.1766 429.2 36.7048 429.2 35.2C429.2 25.4958 437.096 17.6 446.8 17.6C448.703 17.6 450.564 17.9058 452.359 18.5108C457.877 7.1962 469.284 0 482 0C499.725 0 514.23 14.0448 514.969 31.5876C527.841 34.5994 537 46.013 537 59.4C537 75.1696 524.17 88 508.4 88ZM429.2 44C418.284 44 409.4 52.8814 409.4 63.8C409.4 74.7186 418.284 83.6 429.2 83.6H508.4C521.743 83.6 532.6 72.743 532.6 59.4C532.6 47.5442 524.112 37.521 512.417 35.563C511.344 35.3826 510.563 34.4454 510.58 33.3564C510.58 33.3146 510.593 33.088 510.596 33.044C510.6 17.2304 497.77 4.4 482 4.4C470.342 4.4 459.954 11.3806 455.532 22.1826C455.303 22.7436 454.85 23.1858 454.282 23.4036C453.717 23.6258 453.083 23.595 452.538 23.331C450.716 22.4466 448.787 22 446.8 22C439.52 22 433.6 27.9202 433.6 35.2C433.6 37.2812 434.084 39.2876 435.037 41.1642C435.415 41.9078 435.34 42.801 434.843 43.472C434.346 44.143 433.523 44.4796 432.691 44.3278C431.451 44.1078 430.309 44 429.2 44Z" fill="#D0DEFD"/>
<path d="M534.8 61.6C533.586 61.6 532.6 60.6166 532.6 59.4C532.6 46.057 521.743 35.2 508.4 35.2C495.057 35.2 484.2 46.057 484.2 59.4C484.2 60.6166 483.214 61.6 482 61.6C480.786 61.6 479.8 60.6166 479.8 59.4C479.8 43.6304 492.63 30.8 508.4 30.8C524.17 30.8 537 43.6304 537 59.4C537 60.6166 536.014 61.6 534.8 61.6Z" fill="#D0DEFD"/>
<path d="M453.22 46.1978C452.335 46.1978 451.499 45.661 451.165 44.781C449.728 41.0212 449 37.059 449 33C449 14.8038 463.804 0 482 0C483.214 0 484.2 0.9834 484.2 2.2C484.2 3.4166 483.214 4.4 482 4.4C466.23 4.4 453.4 17.2304 453.4 33C453.4 36.52 454.031 39.9542 455.277 43.2146C455.71 44.3498 455.142 45.6214 454.007 46.0548C453.748 46.1516 453.481 46.1978 453.22 46.1978Z" fill="#D0DEFD"/>
<path d="M124.779 160C112.805 160 104.122 169.713 103.486 180.336C96.2372 182.788 91 189.598 91 197.655C91 207.764 99.2326 216 109.337 216H155.663C166.321 216 174 208.685 174 199.586C174 192.431 169.324 185.501 162.238 183.565C161.776 177.975 159.034 173.67 155.21 171.375C151.52 169.16 146.99 168.775 142.905 170.228C139.428 164.527 133.063 160 124.779 160Z" fill="white"/>
<path d="M124.779 160C112.805 160 104.122 169.713 103.486 180.336C96.2372 182.788 91 189.598 91 197.655C91 207.764 99.2326 216 109.337 216H155.663C166.321 216 174 208.685 174 199.586C174 192.431 169.324 185.501 162.238 183.565C161.776 177.975 159.034 173.67 155.21 171.375C151.52 169.16 146.99 168.775 142.905 170.228C139.428 164.527 133.063 160 124.779 160ZM124.779 163.862C132.276 163.862 137.84 168.21 140.432 173.397C140.544 173.625 140.701 173.829 140.892 173.996C141.083 174.164 141.306 174.292 141.547 174.373C141.788 174.455 142.043 174.488 142.297 174.47C142.55 174.453 142.798 174.385 143.026 174.272C146.282 172.643 150.163 172.829 153.22 174.664C156.277 176.499 158.558 179.9 158.558 185.103C158.559 185.558 158.719 185.997 159.011 186.345C159.304 186.693 159.709 186.926 160.157 187.004C165.956 187.978 170.14 193.767 170.14 199.586C170.14 206.573 164.633 212.138 155.663 212.138H109.337C101.319 212.138 94.8605 205.677 94.8605 197.655C94.8605 190.868 99.5111 185.213 105.778 183.625C106.198 183.517 106.569 183.27 106.831 182.925C107.094 182.581 107.233 182.158 107.226 181.724C107.139 172.661 114.457 163.862 124.779 163.862Z" fill="#D0DEFD"/>
</svg>
