<svg width="40" height="40" fill="none" xmlns="http://www.w3.org/2000/svg"><circle cx="20" cy="20" r="20" fill="#2B6BF3"/><path fill-rule="evenodd" clip-rule="evenodd" d="M15.466 9.066C16.639 9.013 17.014 9 20.002 9h-.004c2.988 0 3.362.013 4.535.066 1.171.054 1.971.24 2.672.511.725.281 1.337.657 1.948 1.269a5.4 5.4 0 0 1 1.27 1.948c.27.7.456 1.5.511 2.67.053 1.174.066 1.549.066 4.536 0 2.987-.013 3.361-.066 4.535-.055 1.17-.24 1.97-.511 2.67a5.4 5.4 0 0 1-1.27 1.948 5.382 5.382 0 0 1-1.947 1.27c-.7.272-1.5.457-2.671.51C23.362 30.987 20 31 20 31s-3.362-.013-4.535-.067c-1.17-.053-1.97-.238-2.67-.51a5.387 5.387 0 0 1-1.948-1.27 5.39 5.39 0 0 1-1.269-1.949c-.272-.7-.457-1.498-.511-2.67C9.014 23.361 9 22.988 9 20s.014-3.363.067-4.536c.052-1.17.238-1.97.51-2.67a5.4 5.4 0 0 1 1.27-1.948 5.387 5.387 0 0 1 1.949-1.268c.7-.273 1.499-.458 2.67-.512ZM20 11s-3.429-.004-4.444.041c-1.072.05-1.654.228-2.042.38-.513.2-.88.438-1.265.823a3.407 3.407 0 0 0-.823 1.265c-.15.388-.33.97-.38 2.042-.052 1.16-.045 4.449-.045 4.449s-.007 3.28.046 4.44c.049 1.073.228 1.655.379 2.042.2.514.438.88.823 1.264.385.385.752.624 1.265.823.388.15.97.33 2.042.38C16.716 29 20 29 20 29s3.287.001 4.446-.052c1.073-.049 1.655-.227 2.043-.379.513-.2.879-.438 1.264-.822.385-.385.624-.75.823-1.264.15-.387.33-.97.379-2.042C29.008 23.281 29 20 29 20s.006-3.287-.046-4.446c-.049-1.073-.228-1.655-.379-2.042-.2-.513-.438-.88-.823-1.265a3.402 3.402 0 0 0-1.264-.823c-.388-.15-.97-.33-2.043-.378C23.286 10.992 20 11 20 11Z" fill="#fff"/><path fill-rule="evenodd" clip-rule="evenodd" d="M20 24a4 4 0 1 0 0-8 4 4 0 0 0 0 8Zm0 2a6 6 0 1 0 0-12 6 6 0 0 0 0 12ZM26 13a1 1 0 1 0 0 2 1 1 0 0 0 0-2Z" fill="#fff"/></svg>