<svg width="328" height="24" viewBox="0 0 328 24" fill="none" xmlns="http://www.w3.org/2000/svg">
<g opacity="0.72">
<path d="M327 11C327.552 11 328 11.4477 328 12C328 12.5523 327.552 13 327 13H200V11H327Z" fill="#C2D2F4"/>
<path d="M327 11C327.552 11 328 11.4477 328 12C328 12.5523 327.552 13 327 13H200V11H327Z" fill="#B7C6E7"/>
<path d="M130 11V13H1C0.447723 13 0 12.5523 0 12C0 11.4477 0.447723 11 1 11H130Z" fill="#C2D2F4"/>
<path d="M130 11V13H1C0.447723 13 0 12.5523 0 12C0 11.4477 0.447723 11 1 11H130Z" fill="#B7C6E7"/>
</g>
<path d="M143.055 11.24L139.065 6.172H138.463V16H140.101V9.868L142.943 13.494H143.167L145.995 9.868V16H147.633V6.172H147.031L143.055 11.24ZM154.133 14.866C154.175 16.196 155.001 16.196 156.065 16.014L156.037 15.146C155.309 15.216 155.337 14.81 155.337 14.18V11.52C155.337 9.658 153.881 9.084 152.243 9.084C151.347 9.084 150.437 9.266 149.751 9.616L149.975 10.708C150.815 10.288 153.853 9.7 153.853 11.478V12.15C153.251 11.814 152.509 11.646 151.851 11.646C150.367 11.646 149.191 12.416 149.233 14.026C149.233 15.342 150.423 16.126 151.655 16.126C152.607 16.126 153.685 15.762 154.133 14.866ZM153.853 13.69C153.699 14.544 152.761 14.922 151.963 14.922C151.347 14.922 150.731 14.614 150.731 13.942C150.731 13.116 151.361 12.682 152.103 12.668C152.705 12.654 153.349 12.836 153.853 13.13V13.69ZM162.362 14.964C162.362 16.098 163.286 16.196 164.336 16.014L164.308 14.964C163.538 14.964 163.608 14.67 163.608 13.9V5.752H162.082V9.672C161.466 9.308 160.808 9.154 160.206 9.154C158.47 9.154 157.014 10.526 157.014 12.612C157.014 14.502 158.106 16.182 160.122 16.14C161.116 16.14 161.914 15.762 162.362 14.768V14.964ZM162.11 12.906C162.11 13.928 161.41 14.782 160.36 14.782C159.114 14.782 158.526 13.774 158.526 12.612C158.526 11.24 159.394 10.498 160.444 10.484C160.976 10.47 161.564 10.638 162.11 11.016V12.906ZM168.868 9.098C167.034 9.098 165.41 10.232 165.368 12.486C165.298 14.768 166.936 16.196 169.162 16.154C170.016 16.154 170.926 15.93 171.71 15.58L171.514 14.446C170.716 14.796 169.904 14.908 169.064 14.866C167.832 14.866 166.866 14.138 166.866 12.906H171.85C172.298 10.666 171.234 9.098 168.868 9.098ZM168.854 10.274C169.82 10.274 170.66 10.806 170.618 11.828H166.894C167.104 10.764 167.846 10.274 168.854 10.274ZM176.971 15.65C177.839 15.986 178.889 16.196 179.813 16.21C181.829 16.224 183.663 15.3 183.663 12.696C183.663 10.54 182.207 9.154 180.443 9.154C179.841 9.154 179.141 9.322 178.497 9.658V5.766H176.971V15.65ZM178.469 10.974C179.029 10.638 179.673 10.498 180.205 10.512C181.255 10.554 182.137 11.282 182.137 12.696C182.137 14.334 181.171 14.95 179.967 14.964C179.519 14.964 178.959 14.88 178.469 14.74V10.974ZM191.436 9.42V9.252H189.91L189.014 11.618L187.992 14.572H187.95L186.844 11.604L185.85 9.252H184.212V9.42L187.25 16.042L186.928 16.868C186.522 17.988 185.934 18.576 184.73 18.044L184.548 19.15C186.886 20.158 187.726 18.562 188.51 16.574L191.436 9.42Z" fill="#C2D2F4"/>
<path d="M143.055 11.24L139.065 6.172H138.463V16H140.101V9.868L142.943 13.494H143.167L145.995 9.868V16H147.633V6.172H147.031L143.055 11.24ZM154.133 14.866C154.175 16.196 155.001 16.196 156.065 16.014L156.037 15.146C155.309 15.216 155.337 14.81 155.337 14.18V11.52C155.337 9.658 153.881 9.084 152.243 9.084C151.347 9.084 150.437 9.266 149.751 9.616L149.975 10.708C150.815 10.288 153.853 9.7 153.853 11.478V12.15C153.251 11.814 152.509 11.646 151.851 11.646C150.367 11.646 149.191 12.416 149.233 14.026C149.233 15.342 150.423 16.126 151.655 16.126C152.607 16.126 153.685 15.762 154.133 14.866ZM153.853 13.69C153.699 14.544 152.761 14.922 151.963 14.922C151.347 14.922 150.731 14.614 150.731 13.942C150.731 13.116 151.361 12.682 152.103 12.668C152.705 12.654 153.349 12.836 153.853 13.13V13.69ZM162.362 14.964C162.362 16.098 163.286 16.196 164.336 16.014L164.308 14.964C163.538 14.964 163.608 14.67 163.608 13.9V5.752H162.082V9.672C161.466 9.308 160.808 9.154 160.206 9.154C158.47 9.154 157.014 10.526 157.014 12.612C157.014 14.502 158.106 16.182 160.122 16.14C161.116 16.14 161.914 15.762 162.362 14.768V14.964ZM162.11 12.906C162.11 13.928 161.41 14.782 160.36 14.782C159.114 14.782 158.526 13.774 158.526 12.612C158.526 11.24 159.394 10.498 160.444 10.484C160.976 10.47 161.564 10.638 162.11 11.016V12.906ZM168.868 9.098C167.034 9.098 165.41 10.232 165.368 12.486C165.298 14.768 166.936 16.196 169.162 16.154C170.016 16.154 170.926 15.93 171.71 15.58L171.514 14.446C170.716 14.796 169.904 14.908 169.064 14.866C167.832 14.866 166.866 14.138 166.866 12.906H171.85C172.298 10.666 171.234 9.098 168.868 9.098ZM168.854 10.274C169.82 10.274 170.66 10.806 170.618 11.828H166.894C167.104 10.764 167.846 10.274 168.854 10.274ZM176.971 15.65C177.839 15.986 178.889 16.196 179.813 16.21C181.829 16.224 183.663 15.3 183.663 12.696C183.663 10.54 182.207 9.154 180.443 9.154C179.841 9.154 179.141 9.322 178.497 9.658V5.766H176.971V15.65ZM178.469 10.974C179.029 10.638 179.673 10.498 180.205 10.512C181.255 10.554 182.137 11.282 182.137 12.696C182.137 14.334 181.171 14.95 179.967 14.964C179.519 14.964 178.959 14.88 178.469 14.74V10.974ZM191.436 9.42V9.252H189.91L189.014 11.618L187.992 14.572H187.95L186.844 11.604L185.85 9.252H184.212V9.42L187.25 16.042L186.928 16.868C186.522 17.988 185.934 18.576 184.73 18.044L184.548 19.15C186.886 20.158 187.726 18.562 188.51 16.574L191.436 9.42Z" fill="#B7C6E7"/>
</svg>
