<svg width="85" height="64" fill="none" xmlns="http://www.w3.org/2000/svg"><g clip-path="url(#a)"><path d="M14.078 42.843 42.5.133l28.422 42.71h-6.64L42.5 10.446 20.719 42.843h-6.64ZM4.383 57.388l8.898-13.223h11.29l7.304 10.05h-6.773l5.71 8.33 4.118-6.215-8.766-12.165h7.172l5.047 7.14 4.781-7.14h6.773L36.79 64H0l3.586-5.29h18.328l-5.844-8.33h6.64l-.929-1.322h-5.18l-5.843 8.33H4.383ZM51.531 44.165h6.774L55.78 48h3.985v5.29h-7.57l-3.587 5.42h11.422V64H38.25l13.281-19.835ZM61.36 44.165h10.359l3.32 4.893h-8.234v1.322h9.03l3.454 5.157H66.805v3.173h14.61L85 64H61.36V44.165Z" fill="#D9E3F6"/><path d="M37.523 18.527 17.825 47.28M27.123 18.934c3.894-2.652 23.244-8.92 24.85-6.529 2.628 3.915-17.2 18.388-23.118 19.224M41.621 28.168c-2.372 1.754-5.636 6.275-4.749 7.38.481.602 5.565-2.956 7.04-4.316" stroke="#2B6BF3" stroke-width="2" stroke-linejoin="round"/><path d="M50 25.702C43.62 30.208 36.55 39.901 36.55 42.094c3.023-1.275 26.899-7.703 45.351-5.819" stroke="#2B6BF3" stroke-width="2" stroke-linejoin="round"/><path d="M54.482 25.617c-.918 1.059-6.963 8.297-8.197 10.509" stroke="#2B6BF3" stroke-width="2" stroke-linejoin="round"/><path d="M51.294 28.477c1.67-1.761 6.975-4.426 7.81-2.96.548 1.752-7.178 5.853-8.465 5.049 1.484 1.372 5.922 3.338 7.787 4.08M68.885 24.868c-2.969-1.698-9.274 6.61-7.948 8.707.439.693 10.657-5.765 7.948-8.707Z" stroke="#2B6BF3" stroke-width="2" stroke-linejoin="round"/></g><defs><clipPath id="a"><path fill="#fff" d="M0 0h85v64H0z"/></clipPath></defs></svg>