<svg width="1160" height="24" fill="none" xmlns="http://www.w3.org/2000/svg"><g opacity=".72"><path d="M1159.5 11c.28 0 .5.448.5 1s-.22 1-.5 1H615v-2h544.5Z" fill="#C2D2F4"/><path d="M1159.5 11c.28 0 .5.448.5 1s-.22 1-.5 1H615v-2h544.5Z" fill="#B7C6E7"/><path d="M545 11v2H.5c-.276 0-.5-.448-.5-1s.224-1 .5-1H545Z" fill="#C2D2F4"/><path d="M545 11v2H.5c-.276 0-.5-.448-.5-1s.224-1 .5-1H545Z" fill="#B7C6E7"/></g><path d="m559.055 11.24 3.976-5.068h.602V16h-1.638V9.868l-2.828 3.626h-.224l-2.842-3.626V16h-1.638V6.172h.602l3.99 5.068Zm11.078 3.626a2.09 2.09 0 0 1-1.008.952 3.546 3.546 0 0 1-1.47.308c-.653 0-1.223-.191-1.708-.574-.476-.383-.714-.891-.714-1.526-.019-.775.215-1.363.7-1.764.495-.41 1.134-.616 1.918-.616.737 0 1.405.168 2.002.504v-.672c0-.41-.163-.719-.49-.924-.317-.205-.7-.303-1.148-.294-.439.01-.863.056-1.274.14-.411.084-.733.187-.966.308l-.224-1.092c.691-.355 1.521-.532 2.492-.532.915 0 1.657.191 2.226.574.579.373.868.994.868 1.862v3.108c.009.075.033.173.07.294.047.112.117.182.21.21.103.028.243.033.42.014l.028.868a6.44 6.44 0 0 1-.966.084.882.882 0 0 1-.686-.294c-.177-.205-.271-.518-.28-.938Zm-.28-1.176v-.56a3.18 3.18 0 0 0-1.75-.462c-.392.01-.719.126-.98.35-.261.224-.392.532-.392.924 0 .317.121.56.364.728.243.168.532.252.868.252.448 0 .854-.103 1.218-.308.373-.215.597-.523.672-.924Zm8.509 1.274v-.196c-.41.915-1.157 1.372-2.24 1.372-.961.019-1.722-.313-2.282-.994-.55-.69-.826-1.535-.826-2.534 0-1.017.308-1.848.924-2.492.626-.644 1.382-.966 2.268-.966.663 0 1.288.173 1.876.518v-3.92h1.526V13.9c0 .476.024.756.07.84.084.15.294.224.63.224l.028 1.05c-1.316.224-1.974-.126-1.974-1.05Zm-.252-2.058v-1.89c-.532-.373-1.087-.55-1.666-.532-.55.01-1.008.2-1.372.574-.364.373-.546.891-.546 1.554 0 .616.154 1.134.462 1.554.318.41.775.616 1.372.616.514 0 .934-.182 1.26-.546.327-.364.49-.807.49-1.33Zm6.758-3.808c1.167 0 2.011.35 2.534 1.05.523.7.672 1.62.448 2.758h-4.984c0 .597.205 1.073.616 1.428.42.355.947.532 1.582.532.896.047 1.713-.093 2.45-.42l.196 1.134c-.859.383-1.708.574-2.548.574-1.129.019-2.053-.308-2.772-.98-.719-.672-1.059-1.568-1.022-2.688.019-1.073.364-1.904 1.036-2.492.672-.597 1.493-.896 2.464-.896Zm-.014 1.176c-1.101 0-1.755.518-1.96 1.554h3.724c.019-.485-.145-.863-.49-1.134-.336-.28-.761-.42-1.274-.42Zm8.117 5.376V5.766h1.526v3.892c.644-.336 1.292-.504 1.946-.504.905 0 1.666.327 2.282.98.625.653.938 1.507.938 2.562 0 1.213-.364 2.105-1.092 2.674-.719.57-1.638.85-2.758.84a8.32 8.32 0 0 1-2.842-.56Zm1.498-4.676v3.766a5.45 5.45 0 0 0 1.498.224c.653-.01 1.176-.196 1.568-.56.401-.364.602-.933.602-1.708 0-.672-.182-1.2-.546-1.582-.364-.383-.826-.583-1.386-.602a3.113 3.113 0 0 0-1.736.462Zm12.967-1.554-2.926 7.154c-.187.467-.355.845-.504 1.134-.14.299-.327.602-.56.91-.224.308-.467.523-.728.644-.252.13-.565.191-.938.182-.364 0-.775-.098-1.232-.294l.182-1.106c.383.196.719.257 1.008.182.289-.075.523-.22.7-.434.187-.215.35-.523.49-.924l.322-.826-3.038-6.622v-.168h1.638l.994 2.352 1.106 2.968h.042l1.022-2.954.896-2.366h1.526v.168Z" fill="#C2D2F4"/><path d="m559.055 11.24 3.976-5.068h.602V16h-1.638V9.868l-2.828 3.626h-.224l-2.842-3.626V16h-1.638V6.172h.602l3.99 5.068Zm11.078 3.626a2.09 2.09 0 0 1-1.008.952 3.546 3.546 0 0 1-1.47.308c-.653 0-1.223-.191-1.708-.574-.476-.383-.714-.891-.714-1.526-.019-.775.215-1.363.7-1.764.495-.41 1.134-.616 1.918-.616.737 0 1.405.168 2.002.504v-.672c0-.41-.163-.719-.49-.924-.317-.205-.7-.303-1.148-.294-.439.01-.863.056-1.274.14-.411.084-.733.187-.966.308l-.224-1.092c.691-.355 1.521-.532 2.492-.532.915 0 1.657.191 2.226.574.579.373.868.994.868 1.862v3.108c.009.075.033.173.07.294.047.112.117.182.21.21.103.028.243.033.42.014l.028.868a6.44 6.44 0 0 1-.966.084.882.882 0 0 1-.686-.294c-.177-.205-.271-.518-.28-.938Zm-.28-1.176v-.56a3.18 3.18 0 0 0-1.75-.462c-.392.01-.719.126-.98.35-.261.224-.392.532-.392.924 0 .317.121.56.364.728.243.168.532.252.868.252.448 0 .854-.103 1.218-.308.373-.215.597-.523.672-.924Zm8.509 1.274v-.196c-.41.915-1.157 1.372-2.24 1.372-.961.019-1.722-.313-2.282-.994-.55-.69-.826-1.535-.826-2.534 0-1.017.308-1.848.924-2.492.626-.644 1.382-.966 2.268-.966.663 0 1.288.173 1.876.518v-3.92h1.526V13.9c0 .476.024.756.07.84.084.15.294.224.63.224l.028 1.05c-1.316.224-1.974-.126-1.974-1.05Zm-.252-2.058v-1.89c-.532-.373-1.087-.55-1.666-.532-.55.01-1.008.2-1.372.574-.364.373-.546.891-.546 1.554 0 .616.154 1.134.462 1.554.318.41.775.616 1.372.616.514 0 .934-.182 1.26-.546.327-.364.49-.807.49-1.33Zm6.758-3.808c1.167 0 2.011.35 2.534 1.05.523.7.672 1.62.448 2.758h-4.984c0 .597.205 1.073.616 1.428.42.355.947.532 1.582.532.896.047 1.713-.093 2.45-.42l.196 1.134c-.859.383-1.708.574-2.548.574-1.129.019-2.053-.308-2.772-.98-.719-.672-1.059-1.568-1.022-2.688.019-1.073.364-1.904 1.036-2.492.672-.597 1.493-.896 2.464-.896Zm-.014 1.176c-1.101 0-1.755.518-1.96 1.554h3.724c.019-.485-.145-.863-.49-1.134-.336-.28-.761-.42-1.274-.42Zm8.117 5.376V5.766h1.526v3.892c.644-.336 1.292-.504 1.946-.504.905 0 1.666.327 2.282.98.625.653.938 1.507.938 2.562 0 1.213-.364 2.105-1.092 2.674-.719.57-1.638.85-2.758.84a8.32 8.32 0 0 1-2.842-.56Zm1.498-4.676v3.766a5.45 5.45 0 0 0 1.498.224c.653-.01 1.176-.196 1.568-.56.401-.364.602-.933.602-1.708 0-.672-.182-1.2-.546-1.582-.364-.383-.826-.583-1.386-.602a3.113 3.113 0 0 0-1.736.462Zm12.967-1.554-2.926 7.154c-.187.467-.355.845-.504 1.134-.14.299-.327.602-.56.91-.224.308-.467.523-.728.644-.252.13-.565.191-.938.182-.364 0-.775-.098-1.232-.294l.182-1.106c.383.196.719.257 1.008.182.289-.075.523-.22.7-.434.187-.215.35-.523.49-.924l.322-.826-3.038-6.622v-.168h1.638l.994 2.352 1.106 2.968h.042l1.022-2.954.896-2.366h1.526v.168Z" fill="#B7C6E7"/></svg>