<svg width="360" height="28" viewBox="0 0 360 28" fill="none" xmlns="http://www.w3.org/2000/svg">
<g opacity="0.5">
<path d="M0 14H360V16H0V14Z" fill="#C2D2F4"/>
<path d="M0 14H360V16H0V14Z" fill="#B7C6E7"/>
</g>
<path d="M130 14H230V16H130V14Z" fill="white"/>
<path d="M180 0L164 4.5V23.6923L180 28L196 23.5V4.5L180 0ZM166 22V7.5L179 11V25.5L166 22ZM166 5.5L171.5 4L185.5 7.5L180 9L166 5.5ZM194 22L181 25.5V11L186 9.5V15L189 14V8.5L194 7V22ZM189 6.5L175 3L180 1.5L193 5.5L189 6.5Z" fill="#C2D2F4"/>
<path d="M180 0L164 4.5V23.6923L180 28L196 23.5V4.5L180 0ZM166 22V7.5L179 11V25.5L166 22ZM166 5.5L171.5 4L185.5 7.5L180 9L166 5.5ZM194 22L181 25.5V11L186 9.5V15L189 14V8.5L194 7V22ZM189 6.5L175 3L180 1.5L193 5.5L189 6.5Z" fill="#B7C6E7"/>
</svg>
