<svg width="1366" height="32" fill="none" xmlns="http://www.w3.org/2000/svg"><g opacity=".5"><path d="M-37 14h1440v2H-37v-2Z" fill="#C2D2F4"/><path d="M-37 14h1440v2H-37v-2Z" fill="#B7C6E7"/></g><path d="M633 14h100v2H633v-2Z" fill="#fff"/><path d="m683 2-16 4.5v19.192L683 30l16-4.5v-19L683 2Zm-14 22V9.5l13 3.5v14.5L669 24Zm0-16.5 5.5-1.5 14 3.5L683 11l-14-3.5ZM697 24l-13 3.5V13l5-1.5V17l3-1v-5.5l5-1.5v15Zm-5-15.5L678 5l5-1.5 13 4-4 1Z" fill="#C2D2F4"/><path d="m683 2-16 4.5v19.192L683 30l16-4.5v-19L683 2Zm-14 22V9.5l13 3.5v14.5L669 24Zm0-16.5 5.5-1.5 14 3.5L683 11l-14-3.5ZM697 24l-13 3.5V13l5-1.5V17l3-1v-5.5l5-1.5v15Zm-5-15.5L678 5l5-1.5 13 4-4 1Z" fill="#B7C6E7"/></svg>