<svg width="80" height="80" fill="none" xmlns="http://www.w3.org/2000/svg"><g clip-path="url(#a)"><g filter="url(#b)"><path d="M40 80c22.091 0 40-17.909 40-40S62.091 0 40 0 0 17.909 0 40s17.909 40 40 40Z" fill="#fff"/></g><path d="M48.15 40h-1.3a.791.791 0 0 0-.601.293c-.16.187-.249.442-.249.707 0 .265.09.52.249.707.16.188.375.293.6.293h1.301a.791.791 0 0 0 .601-.293c.16-.187.249-.442.249-.707 0-.265-.09-.52-.249-.707a.791.791 0 0 0-.6-.293ZM52.151 40H50.85a.79.79 0 0 0-.6.293c-.16.187-.249.442-.249.707 0 .265.09.52.249.707a.79.79 0 0 0 .6.293h1.302a.79.79 0 0 0 .6-.293c.16-.187.249-.442.249-.707 0-.265-.09-.52-.249-.707a.79.79 0 0 0-.6-.293ZM56.151 40H54.85a.79.79 0 0 0-.6.293c-.16.187-.249.442-.249.707 0 .265.09.52.249.707a.79.79 0 0 0 .6.293h1.302a.79.79 0 0 0 .6-.293c.16-.187.249-.442.249-.707 0-.265-.09-.52-.249-.707a.79.79 0 0 0-.6-.293ZM48.15 44h-1.3a.791.791 0 0 0-.601.293c-.16.187-.249.442-.249.707 0 .265.09.52.249.707.16.188.375.293.6.293h1.301a.791.791 0 0 0 .601-.293c.16-.187.249-.442.249-.707 0-.265-.09-.52-.249-.707a.791.791 0 0 0-.6-.293ZM52.151 44H50.85a.79.79 0 0 0-.6.293c-.16.187-.249.442-.249.707 0 .265.09.52.249.707a.79.79 0 0 0 .6.293h1.302a.79.79 0 0 0 .6-.293c.16-.187.249-.442.249-.707 0-.265-.09-.52-.249-.707a.79.79 0 0 0-.6-.293ZM56.151 44H54.85a.79.79 0 0 0-.6.293c-.16.187-.249.442-.249.707 0 .265.09.52.249.707a.79.79 0 0 0 .6.293h1.302a.79.79 0 0 0 .6-.293c.16-.187.249-.442.249-.707 0-.265-.09-.52-.249-.707a.79.79 0 0 0-.6-.293ZM48.15 48h-1.3a.791.791 0 0 0-.601.293c-.16.187-.249.442-.249.707 0 .265.09.52.249.707.16.188.375.293.6.293h1.301a.791.791 0 0 0 .601-.293c.16-.187.249-.442.249-.707 0-.265-.09-.52-.249-.707a.791.791 0 0 0-.6-.293ZM52.151 48H50.85a.79.79 0 0 0-.6.293c-.16.187-.249.442-.249.707 0 .265.09.52.249.707a.79.79 0 0 0 .6.293h1.302a.79.79 0 0 0 .6-.293c.16-.187.249-.442.249-.707 0-.265-.09-.52-.249-.707a.79.79 0 0 0-.6-.293ZM56.151 48H54.85a.79.79 0 0 0-.6.293c-.16.187-.249.442-.249.707 0 .265.09.52.249.707a.79.79 0 0 0 .6.293h1.302a.79.79 0 0 0 .6-.293c.16-.187.249-.442.249-.707 0-.265-.09-.52-.249-.707a.79.79 0 0 0-.6-.293Z" fill="#2B6BF3"/><path d="M57.391 36.086h-9.565V20.87a.87.87 0 0 0-.87-.87H20.87a.87.87 0 0 0-.87.87v35.65a.87.87 0 0 0 .37.713l3.73 2.609a.87.87 0 0 0 1 0l3.226-2.26 3.226 2.26a.87.87 0 0 0 1 0l3.226-2.26 3.226 2.26a.87.87 0 0 0 1 0l3.226-2.26 3.227 2.26a.87.87 0 0 0 1.37-.713v-6.087h9.564A2.609 2.609 0 0 0 60 50.434v-11.74a2.609 2.609 0 0 0-2.609-2.608ZM46.087 24.782h-1.33l1.33-1.33v1.33Zm0-2.556-2.557 2.556h-2.687l3.044-3.043h2.2v.487Zm-24.348 2.122 2.609-2.609h2.696L24 24.782h-2.26v-.434Zm6.522-2.609h2.678l-3.043 3.043h-2.679l3.044-3.043Zm3.913 0h2.678l-3.043 3.043H29.13l3.044-3.043Zm3.913 0h2.678l-3.043 3.043h-2.678l3.043-3.043Zm3.913 0h2.678l-3.043 3.043h-2.678L40 21.74Zm-16.87 0-1.39 1.391v-1.39h1.39Zm22.957 35.72-2.357-1.652a.87.87 0 0 0-1 0l-3.226 2.261-3.226-2.26a.87.87 0 0 0-1 0l-3.226 2.26-3.226-2.26a.87.87 0 0 0-1 0l-3.226 2.26-2.86-1.982V26.522h24.347v9.564h-.435a2.609 2.609 0 0 0-2.608 2.609v11.739a2.609 2.609 0 0 0 2.608 2.608h.435v4.417Zm12.174-7.025a.87.87 0 0 1-.87.87H45.652a.87.87 0 0 1-.87-.87v-11.74a.87.87 0 0 1 .87-.869h11.74a.87.87 0 0 1 .869.87v11.739Z" fill="#2B6BF3"/><path d="M41.05 43h-17.1a.927.927 0 0 0-.672.293A1.028 1.028 0 0 0 23 44c0 .265.1.52.278.707.178.188.42.293.672.293h17.1a.927.927 0 0 0 .672-.293C41.9 44.52 42 44.265 42 44c0-.265-.1-.52-.278-.707A.927.927 0 0 0 41.05 43ZM41.05 47h-17.1a.927.927 0 0 0-.672.293A1.028 1.028 0 0 0 23 48c0 .265.1.52.278.707.178.188.42.293.672.293h17.1a.927.927 0 0 0 .672-.293C41.9 48.52 42 48.265 42 48c0-.265-.1-.52-.278-.707A.927.927 0 0 0 41.05 47ZM41.05 51h-17.1a.927.927 0 0 0-.672.293A1.028 1.028 0 0 0 23 52c0 .265.1.52.278.707.178.188.42.293.672.293h17.1a.927.927 0 0 0 .672-.293C41.9 52.52 42 52.265 42 52c0-.265-.1-.52-.278-.707A.927.927 0 0 0 41.05 51ZM27.438 36.915c-.811.12-1.73-.365-2.27-1.2a1.017 1.017 0 0 0-.278-.335 1.18 1.18 0 0 0-.41-.206 1.28 1.28 0 0 0-.916.088c-.137.07-.256.166-.349.279a.946.946 0 0 0-.19.38.883.883 0 0 0 0 .415.945.945 0 0 0 .192.379c.594.926 1.544 1.635 2.678 2V40h2.27v-1.18c1.298-.295 2.649-1.21 2.807-2.5.284-2.235-1.702-2.82-2.337-3-.567-.16-1.004-.28-1.401-.375-1.05-.265-1.254-.335-1.47-.625a.753.753 0 0 1-.096-.619c.059-.209.207-.39.414-.506a1.73 1.73 0 0 1 1.186-.065c.332.073.643.207.913.393.27.186.492.42.653.687.136.237.373.416.66.499.285.082.597.061.866-.059.268-.12.472-.33.565-.581a.893.893 0 0 0-.066-.764c-.57-.95-1.536-1.667-2.695-2V28h-2.292v1.145a3.27 3.27 0 0 0-1.078.395c-.707.408-1.203 1.046-1.38 1.774a2.55 2.55 0 0 0 .438 2.116c.693.925 1.595 1.15 2.735 1.44.369.095.794.2 1.305.35.8.24.868.385.805.895-.04.28-.624.705-1.259.8Z" fill="#2B6BF3"/></g><defs><clipPath id="a"><rect width="80" height="80" rx="40" fill="#fff"/></clipPath><filter id="b" x="-16" y="-8" width="112" height="112" filterUnits="userSpaceOnUse" color-interpolation-filters="sRGB"><feFlood flood-opacity="0" result="BackgroundImageFix"/><feColorMatrix in="SourceAlpha" values="0 0 0 0 0 0 0 0 0 0 0 0 0 0 0 0 0 0 127 0" result="hardAlpha"/><feOffset dy="8"/><feGaussianBlur stdDeviation="8"/><feColorMatrix values="0 0 0 0 0.168627 0 0 0 0 0.419608 0 0 0 0 0.952941 0 0 0 0.16 0"/><feBlend in2="BackgroundImageFix" result="effect1_dropShadow_1_23"/><feBlend in="SourceGraphic" in2="effect1_dropShadow_1_23" result="shape"/></filter></defs></svg>