<svg width="80" height="80" fill="none" xmlns="http://www.w3.org/2000/svg"><rect width="80" height="80" rx="40" fill="#fff"/><path d="M27.719 31h5.437c.24 0 .471-.088.641-.244a.8.8 0 0 0 .266-.59.801.801 0 0 0-.266-.589.948.948 0 0 0-.64-.244h-5.438a.949.949 0 0 1-.641-.244.801.801 0 0 1-.265-.589v-5c0-.221.095-.433.265-.59.17-.155.4-.243.64-.243h23.563c.24 0 .471.087.641.244.17.156.266.368.266.589v5a.801.801 0 0 1-.266.59.949.949 0 0 1-.64.243h-5.438c-.24 0-.471.088-.641.244a.801.801 0 0 0-.266.59.8.8 0 0 0 .266.589c.17.156.4.244.64.244h5.438c.721 0 1.413-.263 1.923-.732.51-.47.796-1.105.796-1.768v-5c0-.663-.286-1.299-.796-1.768A2.844 2.844 0 0 0 51.28 21H27.72c-.721 0-1.413.263-1.923.732A2.403 2.403 0 0 0 25 23.5v5c0 .663.286 1.299.796 1.768.51.469 1.202.732 1.923.732Z" fill="#FD466E"/><path d="M48.257 40.677a6.039 6.039 0 0 0-2.602 0l-1.544.265-1.214-12.457a2.811 2.811 0 0 0-.952-1.82 2.72 2.72 0 0 0-1.92-.661 2.73 2.73 0 0 0-1.843.855 2.822 2.822 0 0 0-.767 1.908v19.057a32.002 32.002 0 0 0-5.941-2.647 2.56 2.56 0 0 0-2.433.376 2.639 2.639 0 0 0-.799 1.003c-.18.396-.262.832-.238 1.268.019.433.137.855.347 1.232.21.378.504.699.859.938a30.06 30.06 0 0 1 6.072 5.655 9.726 9.726 0 0 0 2.645 2.233 26.52 26.52 0 0 0 5.117 2.382 17.017 17.017 0 0 1 4.702 2.311l.364.265a.857.857 0 0 0 1.21-.216.895.895 0 0 0-.213-1.231l-.364-.256a18.711 18.711 0 0 0-5.091-2.55 24.866 24.866 0 0 1-4.788-2.223 8.201 8.201 0 0 1-2.177-1.835 32.05 32.05 0 0 0-6.453-6.008.893.893 0 0 1-.46-.759.894.894 0 0 1 .355-.759.86.86 0 0 1 .798-.14 26.487 26.487 0 0 1 6.827 3.308.858.858 0 0 0 1.265-.238.894.894 0 0 0 .131-.468V28.767c.007-.26.11-.508.288-.694A1.004 1.004 0 0 1 40.815 28c.196.166.323.402.356.66l1.31 13.454a.893.893 0 0 0 .347.62.86.86 0 0 0 .685.157l2.515-.52a4.35 4.35 0 0 1 1.848 0l2.923.661c.653.15 1.265.448 1.79.87.526.424.952.961 1.245 1.574l1.449 2.973a9.475 9.475 0 0 1 .945 4.138c-.001.971.124 1.938.373 2.876a.383.383 0 0 0 0 .088l2.69 6.89c.066.17.182.316.333.415.15.1.328.15.508.142a.855.855 0 0 0 .605-.25.883.883 0 0 0 .263-.62.895.895 0 0 0-.062-.339l-2.671-6.838a9.115 9.115 0 0 1-.304-2.364 11.175 11.175 0 0 0-1.127-4.888l-1.449-2.982a6.28 6.28 0 0 0-1.725-2.176 6.148 6.148 0 0 0-2.482-1.203l-2.923-.662Z" fill="#FD466E"/></svg>