<svg width="80" height="80" fill="none" xmlns="http://www.w3.org/2000/svg"><g clip-path="url(#a)"><g filter="url(#b)"><path d="M40 80c22.091 0 40-17.909 40-40S62.091 0 40 0 0 17.909 0 40s17.909 40 40 40Z" fill="#fff"/></g><path d="M33.051 31.047a6.969 6.969 0 0 0-4.933 1.294l-7.228 5.106a2.167 2.167 0 0 0-.89 1.726V54c-.006.535.2.95.571 1.332.372.383.88.602 1.411.61l4.655.058h.22a17.9 17.9 0 0 0 7.349-1.589 12.797 12.797 0 0 0 3.724-2.603 11.068 11.068 0 0 1 2.044-1.601l8.185-4.991a3.817 3.817 0 0 0 1.6-1.937c.301-.809.32-1.696.055-2.517a3.741 3.741 0 0 0-1.336-1.826 3.711 3.711 0 0 0-2.14-.715 3.733 3.733 0 0 0-1.361.24l-9.493 3.602c-.132.05-.272.075-.413.075a1.192 1.192 0 0 1-.927-.465 1.307 1.307 0 0 1-.24-.832l.062-8.759a1.038 1.038 0 0 0-.915-1.035Zm1.945 13.158c.404.006.805-.064 1.183-.208h.03L45.7 40.4c.192-.073.395-.11.6-.108.35.004.69.118.972.325.282.207.494.498.604.831a1.75 1.75 0 0 1-.786 2.013l-8.18 4.99a13.126 13.126 0 0 0-2.425 1.901 10.758 10.758 0 0 1-3.137 2.188c-2.104.951-4.377 1.485-6.684 1.46H22V39.173l7.323-5.157a4.92 4.92 0 0 1 2.57-.936l-.096 7.736c-.02.767.22 1.518.683 2.13a3.252 3.252 0 0 0 2.516 1.26ZM39.175 55.743a3.635 3.635 0 0 0 1.669-.582 3.677 3.677 0 0 0 2.362.839h.346a3.696 3.696 0 0 0 1.386-.416c.427-.228.8-.537 1.096-.908a3.718 3.718 0 0 0 3.384-.294c.494-.313.897-.74 1.173-1.24s.416-1.058.408-1.623v-.085l-.36-3.47a.977.977 0 0 0-.107-.396 1.023 1.023 0 0 0-.262-.322 1.082 1.082 0 0 0-.374-.199 1.119 1.119 0 0 0-.835.079 1.056 1.056 0 0 0-.326.264.965.965 0 0 0-.214.772l.355 3.422c0 .274-.086.54-.247.766-.162.226-.392.4-.66.5-.266.1-.56.12-.839.058a1.443 1.443 0 0 1-.727-.403 1.077 1.077 0 0 0-.482-.277 1.118 1.118 0 0 0-.562-.005 1.078 1.078 0 0 0-.487.268c-.134.129-.229.29-.275.466a1.35 1.35 0 0 1-.45.712 1.49 1.49 0 0 1-1.654.155 1.387 1.387 0 0 1-.588-.614 1.03 1.03 0 0 0-.366-.406 1.11 1.11 0 0 0-1.08-.064c-.17.083-.313.207-.416.36a1.401 1.401 0 0 1-.459.439c-.186.11-.396.18-.615.2-.284.027-.545.16-.726.37a.99.99 0 0 0 .149 1.44c.22.172.503.253.787.227l-.004-.033Z" fill="#FFDD2D"/><path d="M55.933 24h-16.88a2.996 2.996 0 0 0-2.158.935 3.262 3.262 0 0 0-.896 2.252v10.636c0 .269.102.527.285.717.182.19.43.298.688.298a.953.953 0 0 0 .688-.298c.182-.19.285-.448.285-.717v-6.41h19.108v10.392a1.195 1.195 0 0 1-.328.823c-.209.218-.492.341-.788.342h-4.074a.953.953 0 0 0-.688.297c-.182.19-.285.449-.285.718 0 .27.103.527.285.718.182.19.43.297.688.297h4.074c.402 0 .8-.082 1.171-.242.372-.16.71-.395.994-.691.284-.297.51-.648.664-1.036a3.31 3.31 0 0 0 .233-1.222V27.195c0-.42-.079-.836-.232-1.224a3.206 3.206 0 0 0-.665-1.038 3.054 3.054 0 0 0-.995-.692A2.948 2.948 0 0 0 55.932 24Zm-17.996 5.395v-2.208c0-.309.119-.605.328-.823.21-.218.493-.341.788-.342h16.88c.296 0 .58.122.79.34.21.219.33.515.33.825v2.208H37.938Z" fill="#FFDD2D"/></g><defs><clipPath id="a"><rect width="80" height="80" rx="40" fill="#fff"/></clipPath><filter id="b" x="-16" y="-8" width="112" height="112" filterUnits="userSpaceOnUse" color-interpolation-filters="sRGB"><feFlood flood-opacity="0" result="BackgroundImageFix"/><feColorMatrix in="SourceAlpha" values="0 0 0 0 0 0 0 0 0 0 0 0 0 0 0 0 0 0 127 0" result="hardAlpha"/><feOffset dy="8"/><feGaussianBlur stdDeviation="8"/><feColorMatrix values="0 0 0 0 0.168627 0 0 0 0 0.419608 0 0 0 0 0.952941 0 0 0 0.16 0"/><feBlend in2="BackgroundImageFix" result="effect1_dropShadow_2_42"/><feBlend in="SourceGraphic" in2="effect1_dropShadow_2_42" result="shape"/></filter></defs></svg>