<svg width="56" height="56" fill="none" xmlns="http://www.w3.org/2000/svg"><path fill-rule="evenodd" clip-rule="evenodd" d="M18 39a2 2 0 1 0 0-4 2 2 0 0 0 0 4Zm0 2a4 4 0 1 0 0-8 4 4 0 0 0 0 8ZM39 39a2 2 0 1 0 0-4 2 2 0 0 0 0 4Zm0 2a4 4 0 1 0 0-8 4 4 0 0 0 0 8Z" fill="#2B6BF3"/><path d="M29 30H11v6h3v2h-3a2 2 0 0 1-2-2v-6a2 2 0 0 1 2-2h16V17a2 2 0 0 1 2-2h10.264a2 2 0 0 1 1.789 1.106l5.736 11.472a2 2 0 0 1 .211.894V36a2 2 0 0 1-2 2h-2v-2h2v-7.528L39.264 17H29v13Z" fill="#2B6BF3"/><path d="M35 36H25v2h10v-2Z" fill="#2B6BF3"/><path d="M16 20.396v-2.355l.002-.003-.001.962L16 20.396Zm1.003-2.394L16.147 18h1.669-.153l-.66.002Zm2.008.003A41.458 41.458 0 0 0 18.55 18h3.058l-.183.001H21l-.996.002-.003.995-.001.527-.005-.533-.013-.972-.97-.015Zm3.993-.002L22.66 18h.089l.907.001h.082l.004.002h.218a.164.164 0 0 1 .007.005l-.964-.006Zm.993.037.001.002v2.217-1.256l-.001-.963ZM23.995 24l.003-1.045v2.003a.21.21 0 0 1-.008.01l.005-.969Zm-.026.99a.12.12 0 0 1-.008.006l-1.747.001c.262 0 .523-.002.785-.003l.97-.004Zm-5.088.008h.369L16.04 25l-.003-.002h2.843ZM16 24.962 16 24.959v-2.782l.001 1.821v.964ZM20 20.503v-.165.114L20 21h-.002l.001-.453v-.044ZM16 18v-1 1Z" stroke="#FFDD2D" stroke-width="2"/></svg>