<svg width="68" height="38" fill="none" xmlns="http://www.w3.org/2000/svg"><path d="M52 8a3 3 0 1 0 0 6 3 3 0 0 0 0-6Zm0 4a1 1 0 1 1 0-2 1 1 0 0 1 0 2ZM51.734 26.683 46.414 32 45 30.586l5.32-5.318 1.414 1.415Z" fill="#2B6BF3"/><path d="M47 23h2V20.83l2-2.001v5l4 4V32h2v-4c0-.55-.318-1.319-.707-1.707L53 22.998V16h-2l-3.293 3.293C47.318 19.68 47 20.45 47 21v2Z" fill="#2B6BF3"/><path d="M56 22h5l1-2h-5.5L54 17v2.5l2 2.5Z" fill="#2B6BF3"/><path d="M59 13.396v-2.355l.002-.003-.001.963L59 13.396Zm1.003-2.394L59.147 11h1.669-.153l-.66.002Zm2.008.003A41.458 41.458 0 0 0 61.55 11h3.058l-.183.001H64l-.996.002-.003.995-.001.527-.005-.533-.013-.972-.97-.015Zm3.993-.002L65.66 11h.089l.907.001h.082l.004.002h.218a.164.164 0 0 1 .007.005l-.964-.006Zm.993.037.001.002v2.217V12.002l-.001-.962ZM66.995 17l.003-1.045v2.003a.21.21 0 0 1-.008.01l.005-.969Zm-.026.99a.12.12 0 0 1-.008.006l-1.747.001c.262 0 .523-.002.785-.003l.97-.004Zm-5.088.008h.368L59.041 18l-.003-.002h2.843ZM59 17.962 59 17.959v-2.782l.001 1.821v.964ZM63 13.504v-.165.112l.001.55h-.002l.001-.453v-.044ZM59 11v-1 1Z" stroke="#FFDD2D" stroke-width="2"/><path d="M24 19.998a5.995 5.995 0 0 0-1.35.16L20.5 15H23v1h1.999v-2a1 1 0 0 0-1-1h-4.998a1 1 0 0 0-.92 1.38l.67 1.62h-6.748l-.62-2h1.62V12H7.005v2h2.259l.81 2.619-2.07 3.73a5.998 5.998 0 1 0 3.909 6.648h2.09a1 1 0 0 0 .83-.45l5.118-7.678.86 2.049a5.999 5.999 0 1 0 3.188-.92Zm-11.417-2h5.548l-3.799 5.69-1.75-5.69Zm-1.7 1.27 1.77 5.73h-.74a5.999 5.999 0 0 0-2.17-3.68l1.14-2.05Zm-2.129 3.84a4 4 0 0 1 1.11 1.89h-2.16l1.05-1.89Zm-2.75 6.888a3.998 3.998 0 1 1 0-7.998c.339.004.675.051 1 .14l-1.869 3.369a1 1 0 0 0 .87 1.49h3.859a3.999 3.999 0 0 1-3.86 2.999Zm17.995 0a3.998 3.998 0 0 1-2.41-7.168l1.48 3.559 1.85-.77-1.48-3.56c.185-.032.372-.052.56-.06a3.998 3.998 0 1 1 0 7.999Z" fill="#2B6BF3"/><path d="M42.061 0 43 .253 32.939 38 32 37.747 42.061 0Z" fill="#C2D2F4"/><path d="M42.061 0 43 .253 32.939 38 32 37.747 42.061 0Z" fill="#B7C6E7"/></svg>